<svg width="1920" height="1159" viewBox="0 0 1920 1159" fill="none" xmlns="http://www.w3.org/2000/svg">
<g opacity="0.5">
<g clip-path="url(#clip0_375_593)">
<path d="M2272.62 -434.028C2409.88 -412.628 2519.95 -305.728 2539.06 -191.928C2558.18 -78.1275 2486.08 42.7724 2405.14 137.872C2324.19 233.072 2234.27 302.572 2133.05 334.972C2031.84 367.272 1919.21 362.472 1784.13 386.572C1649.05 410.772 1491.39 463.872 1419.68 423.972C1347.84 384.172 1361.83 251.472 1346.95 143.172C1331.94 34.8725 1288.06 -48.9275 1302.82 -128.328C1317.57 -207.728 1390.95 -282.628 1484.59 -315.228C1578.37 -347.728 1692.41 -337.728 1831.72 -364.728C1970.91 -391.728 2135.36 -455.528 2272.62 -434.028Z" stroke="#F38255" stroke-width="10"/>
</g>
<g clip-path="url(#clip1_375_593)">
<path d="M2416.76 419.506C2518.66 498.206 2503.76 716.706 2505.96 937.306C2508.06 1157.91 2527.06 1380.71 2425.26 1511.31C2323.46 1642.01 2100.66 1680.61 1916.36 1642.21C1732.06 1603.81 1586.16 1488.31 1487.16 1357.71C1388.16 1227.01 1336.06 1081.11 1349.36 948.506C1362.66 815.906 1441.46 696.706 1540.46 617.906C1639.46 539.206 1758.66 500.906 1927.56 451.306C2096.46 401.706 2314.96 340.706 2416.76 419.506Z" stroke="#F38255" stroke-width="10"/>
</g>
<g clip-path="url(#clip2_375_593)">
<path d="M336.453 628.386C549.653 642.986 882.353 633.286 1013.25 755.486C1144.15 877.686 1073.05 1131.69 1005.35 1401.19C937.653 1670.69 873.253 1955.69 695.553 1959.79C517.853 1963.99 226.953 1687.29 -28.6472 1638.59C-284.247 1589.89 -504.447 1769.29 -656.347 1756.69C-808.247 1744.19 -891.647 1539.79 -969.747 1327.09C-1047.75 1114.39 -1120.35 893.386 -1065.25 710.886C-1010.25 528.286 -827.547 384.186 -639.347 361.486C-451.247 338.786 -257.647 437.486 -114.047 506.286C29.6528 575.086 123.253 613.786 336.453 628.386Z" stroke="#F38255" stroke-width="10"/>
</g>
</g>
<defs>
<clipPath id="clip0_375_593">
<rect width="2463" height="1080" fill="white" transform="translate(-542)"/>
</clipPath>
<clipPath id="clip1_375_593">
<rect width="1920" height="1080" fill="white" transform="translate(8 -61)"/>
</clipPath>
<clipPath id="clip2_375_593">
<rect width="1920" height="1080" fill="white" transform="translate(1 79)"/>
</clipPath>
</defs>
</svg>
