<svg width="624" height="772" viewBox="0 0 624 772" fill="none" xmlns="http://www.w3.org/2000/svg">
<g opacity="0.3">
<path d="M233.482 726.983C364.882 795.583 500.482 775.983 541.682 731.583C565.282 706.183 571.382 674.983 560.182 639.283C553.882 619.183 544.182 603.583 538.382 581.283C521.882 518.283 545.482 494.783 568.682 442.783C594.082 385.783 515.482 343.283 424.082 341.083C332.682 338.883 153.882 379.783 129.882 514.083C114.482 600.283 162.482 689.983 233.482 726.983Z" fill="#F38255"/>
</g>
<path d="M463.4 629.55C457.7 627.35 451.5 632.05 447.4 638.35C443.8 633.75 434.8 628.45 430 632.95C436.5 630.85 443 634.85 446.7 639.95C447 640.25 447.8 640.65 448.1 640.05C452 632.95 458.1 629.35 463.4 629.55Z" fill="#455A64"/>
<path d="M483.399 652.25C478.799 651.15 474.599 656.65 473.399 661.15C470.199 657.95 464.999 654.55 460.699 657.45C465.999 656.15 469.699 658.85 473.099 662.55C473.299 662.75 474.099 663.05 474.199 662.45C475.399 657.25 479.299 652.55 483.399 652.25Z" fill="#455A64"/>
<path d="M473.622 709C475.522 708.2 477.822 708.1 479.522 708C481.422 707.9 482.022 707.5 482.422 707.1C487.122 700.5 494.822 700.4 499.322 702.4C500.522 697.9 506.122 694 512.122 695.4C512.022 689.5 519.722 683.2 526.522 681.9C533.022 680.6 538.722 681.3 542.422 685.6C546.522 677.9 562.222 676 570.522 680.2C575.322 682.6 579.422 685.1 581.322 689.6C582.622 692.6 583.022 694.5 583.022 698.5C586.322 695.7 592.922 695 597.322 696.7C602.022 698.6 602.322 702.2 602.522 705.8C607.222 704.7 610.322 705.5 611.122 705.8C614.122 706.7 615.822 709.1 615.322 711C617.722 710.9 623.322 712.9 622.622 715.4C622.122 717.4 619.322 717.6 617.722 717.7C614.822 717.9 611.822 717.6 609.022 716.6C608.022 716.2 606.822 717.2 605.822 717.5C603.722 718.2 601.622 718.5 599.422 718.3C597.422 718.1 595.422 717.7 593.722 716.7C590.322 719.6 586.322 721.1 582.022 722.2C572.522 724.5 559.122 722.8 553.422 715.6C552.822 716.9 551.722 718 550.522 719C548.222 720.9 545.022 722.1 541.722 722.4C537.822 722.7 527.422 723 524.522 716.8C522.422 720.9 513.022 722.6 506.022 721.5C503.422 721.1 500.422 720.1 498.122 719C496.322 718.1 495.222 717.2 493.622 716.2C492.222 715.3 491.622 715.3 489.722 715.9C484.822 717.3 479.222 717.8 474.322 715.6C470.622 713.9 469.922 710.6 473.622 709Z" fill="white" stroke="#EDC6B6" stroke-miterlimit="10"/>
<g opacity="0.2">
<path d="M560.022 679.2C563.822 679.2 567.423 679.9 570.122 681.3C575.423 684 578.723 686.3 580.423 690.2C581.723 693.2 582.022 695 582.022 698.6C582.022 699 582.222 699.4 582.622 699.6C582.822 699.7 582.923 699.7 583.122 699.7C583.423 699.7 583.622 699.6 583.822 699.4C585.622 697.9 588.723 696.9 591.923 696.9C593.823 696.9 595.522 697.2 597.022 697.8C600.922 699.4 601.322 702.1 601.522 705.9C601.522 706.2 601.723 706.5 601.923 706.7C602.122 706.8 602.322 706.9 602.622 706.9C602.723 706.9 602.822 706.9 602.923 706.9C604.423 706.5 605.923 706.4 607.322 706.4C609.122 706.4 610.422 706.7 611.022 706.9C613.422 707.7 614.822 709.5 614.522 710.8C614.422 711.1 614.523 711.5 614.723 711.8C614.923 712.1 615.223 712.2 615.622 712.2H615.723C617.323 712.2 620.522 713.3 621.522 714.6C621.822 715 621.723 715.1 621.723 715.2C621.423 716.3 619.423 716.6 617.822 716.7C617.222 716.7 616.723 716.8 616.122 716.8C613.622 716.8 611.522 716.5 609.522 715.8C609.222 715.7 608.923 715.6 608.622 715.6C607.723 715.6 607.022 716 606.322 716.3C606.022 716.4 605.822 716.6 605.622 716.6C604.122 717.1 602.622 717.4 601.122 717.4C600.622 717.4 600.223 717.4 599.723 717.3C598.123 717.1 596.122 716.8 594.522 715.8C594.322 715.7 594.122 715.6 593.923 715.6C593.622 715.6 593.423 715.7 593.223 715.9C590.423 718.3 586.822 720 582.022 721.1C579.522 721.7 576.723 722 573.923 722C565.323 722 558.122 719.3 554.622 714.9C554.423 714.6 554.123 714.5 553.723 714.5H553.622C553.222 714.5 552.923 714.8 552.723 715.1C552.223 716.1 551.322 717.2 550.122 718.1C547.923 719.9 544.923 721 541.923 721.3C540.823 721.4 539.723 721.4 538.723 721.4C533.923 721.4 527.823 720.5 525.923 716.3C525.723 715.9 525.323 715.7 524.923 715.6C524.523 715.6 524.123 715.8 523.923 716.2C522.623 718.8 517.022 720.6 510.822 720.6C509.322 720.6 507.922 720.5 506.522 720.3C504.022 719.9 501.222 719 499.022 717.9C497.922 717.3 497.023 716.8 496.123 716.2C495.623 715.9 495.123 715.5 494.623 715.2C493.823 714.7 493.022 714.3 492.022 714.3C491.322 714.3 490.722 714.5 489.822 714.7C487.122 715.5 484.523 715.9 482.123 715.9C479.523 715.9 477.223 715.4 475.123 714.5C473.423 713.8 472.423 712.7 472.423 711.7C472.423 710.8 473.522 710.1 474.222 709.9C475.822 709.2 477.722 709.1 479.222 709H479.722C481.622 708.9 482.622 708.5 483.322 707.7L483.423 707.6C486.823 702.9 491.422 702.2 493.822 702.2C495.622 702.2 497.423 702.6 498.923 703.2C499.023 703.3 499.222 703.3 499.322 703.3C499.522 703.3 499.622 703.3 499.822 703.2C500.122 703.1 500.323 702.8 500.423 702.5C501.223 699.3 504.923 696.1 509.623 696.1C510.423 696.1 511.223 696.2 511.923 696.4C512.023 696.4 512.123 696.4 512.223 696.4C512.523 696.4 512.723 696.3 512.923 696.2C513.223 696 513.322 695.7 513.322 695.3C513.222 689.9 520.622 684.1 526.822 682.9C528.722 682.5 530.522 682.3 532.022 682.3C536.222 682.3 539.322 683.6 541.622 686.2C541.822 686.5 542.122 686.6 542.522 686.6H542.622C543.022 686.6 543.322 686.3 543.522 686C546.022 681.3 553.622 679.2 560.022 679.2ZM560.022 678C552.722 678 545.122 680.6 542.423 685.6C539.823 682.5 536.222 681.3 532.022 681.3C530.322 681.3 528.422 681.5 526.522 681.9C519.722 683.2 512.023 689.5 512.123 695.4C511.222 695.2 510.422 695.1 509.522 695.1C504.522 695.1 500.323 698.5 499.223 702.4C497.623 701.7 495.723 701.3 493.623 701.3C489.723 701.3 485.322 702.8 482.222 707.1C481.822 707.5 481.222 707.9 479.322 708C477.622 708.1 475.323 708.1 473.423 709C469.723 710.6 470.423 713.9 474.423 715.7C476.823 716.7 479.323 717.2 481.923 717.2C484.623 717.2 487.323 716.7 489.923 716C490.723 715.8 491.322 715.6 491.822 715.6C492.522 715.6 493.022 715.8 493.822 716.3C495.422 717.3 496.522 718.2 498.322 719.1C500.622 720.2 503.523 721.2 506.223 721.6C507.623 721.8 509.123 721.9 510.623 721.9C516.722 721.9 523.023 720.1 524.723 716.9C526.923 721.8 533.822 722.6 538.622 722.6C539.923 722.6 541.122 722.5 541.923 722.5C545.223 722.2 548.423 721 550.723 719.1C551.923 718.1 552.923 717 553.622 715.7C557.822 720.9 566.022 723.2 573.822 723.2C576.722 723.2 579.623 722.9 582.223 722.3C586.523 721.3 590.522 719.7 593.923 716.8C595.622 717.8 597.622 718.2 599.622 718.4C600.122 718.5 600.622 718.5 601.122 718.5C602.822 718.5 604.422 718.2 606.022 717.6C606.822 717.3 607.823 716.6 608.723 716.6C608.923 716.6 609.023 716.6 609.223 716.7C611.423 717.5 613.823 717.8 616.223 717.8C616.823 717.8 617.423 717.8 617.923 717.7C619.622 717.6 622.323 717.3 622.823 715.4C623.523 713 618.122 711 615.723 711C615.622 711 615.622 711 615.522 711C615.922 709.1 614.322 706.7 611.322 705.8C610.822 705.6 609.423 705.3 607.322 705.3C606.022 705.3 604.523 705.4 602.723 705.9C602.523 702.3 602.222 698.7 597.522 696.8C595.922 696.1 594.022 695.8 592.022 695.8C588.722 695.8 585.323 696.7 583.223 698.5C583.223 694.5 582.822 692.6 581.522 689.6C579.622 685.1 575.523 682.6 570.723 680.2C567.723 678.8 563.922 678 560.022 678Z" fill="#BA68C8" stroke="#EDC6B6" stroke-miterlimit="10"/>
</g>
<path d="M407.976 302.6C408.676 303 409.076 303.6 409.076 304.1C409.076 304.6 409.076 320.9 409.076 321.4C409.076 321.9 408.676 322.5 407.976 322.9L388.876 333.9C387.476 334.7 385.076 334.7 383.676 333.9L364.276 322.7C363.576 322.3 363.176 321.7 363.176 321.2C363.176 320.7 363.176 304.4 363.176 303.9C363.176 303.4 363.576 302.8 364.276 302.4L383.376 291.4C384.776 290.6 387.176 290.6 388.576 291.4L407.976 302.6Z" fill="#C8856A"/>
<path d="M383.576 316.7L364.276 305.5C363.576 305.1 363.276 304.6 363.176 304.1C363.176 305.1 363.176 320.8 363.176 321.3C363.176 321.8 363.576 322.4 364.276 322.8L383.676 334C384.376 334.4 385.276 334.6 386.176 334.6C386.176 331.2 386.176 320.1 386.176 317.3C385.276 317.3 384.276 317.1 383.576 316.7Z" fill="#AF6152"/>
<path d="M388.776 316.699L407.876 305.699C408.576 305.299 408.976 304.699 408.976 304.199C408.976 303.699 408.576 303.099 407.876 302.699L388.476 291.499C387.076 290.699 384.676 290.699 383.276 291.499L364.176 302.499C363.476 302.899 363.076 303.499 363.076 303.999C363.076 304.499 363.476 305.099 364.176 305.499L383.576 316.699C385.076 317.499 387.376 317.499 388.776 316.699Z" fill="#F0997A"/>
<path opacity="0.1" d="M407.976 302.6L388.576 291.4C387.176 290.6 384.776 290.6 383.376 291.4L364.276 302.4C363.576 302.8 363.176 303.4 363.176 303.9C363.176 304.1 363.176 305.8 363.176 308.1L383.476 319.8C384.976 320.7 387.476 320.7 388.976 319.8L409.076 308.2C409.076 305.9 409.076 304.1 409.076 304C408.976 303.6 408.676 303 407.976 302.6Z" fill="black"/>
<path d="M409.077 298.4C409.877 298.8 410.177 299.4 410.177 300C410.177 300.6 410.177 303.4 410.177 304C410.177 304.6 409.777 305.1 409.077 305.6L388.977 317.2C387.477 318.1 384.977 318.1 383.477 317.2L363.077 305.3C362.277 304.9 361.977 304.3 361.977 303.7C361.977 303.1 361.977 300.3 361.977 299.7C361.977 299.1 362.377 298.6 363.077 298.1L383.177 286.5C384.677 285.6 387.177 285.6 388.677 286.5L409.077 298.4Z" fill="#C8856A"/>
<path d="M383.477 313.1L363.077 301.3C362.377 300.9 361.977 300.3 361.977 299.8C361.977 300.8 361.977 303.1 361.977 303.7C361.977 304.3 362.377 304.8 363.077 305.3L383.477 317.1C384.177 317.5 385.177 317.7 386.177 317.7C386.177 314.2 386.177 316.7 386.177 313.7C385.177 313.8 384.177 313.6 383.477 313.1Z" fill="#AF6152"/>
<path d="M388.977 313.1L409.077 301.5C409.877 301.1 410.177 300.5 410.177 299.9C410.177 299.3 409.777 298.8 409.077 298.3L388.677 286.5C387.177 285.6 384.677 285.6 383.177 286.5L363.077 298.2C362.277 298.6 361.977 299.2 361.977 299.8C361.977 300.4 362.377 300.9 363.077 301.4L383.477 313.2C384.977 314 387.477 314 388.977 313.1Z" fill="#F0997A"/>
<path d="M388.577 311.6L406.377 301.3C407.077 300.9 407.377 300.4 407.377 299.9C407.377 299.4 407.077 298.9 406.377 298.5L388.377 288.1C387.077 287.3 384.877 287.3 383.577 288.1L365.777 298.4C365.077 298.8 364.777 299.3 364.777 299.8C364.777 300.3 365.077 300.8 365.777 301.2L383.777 311.6C385.077 312.4 387.277 312.4 388.577 311.6Z" fill="#B16668"/>
<path d="M388.377 304.4L394.677 308.1L388.577 311.6C387.277 312.4 385.077 312.4 383.777 311.6L377.477 307.9L383.577 304.4C384.877 303.6 387.077 303.6 388.377 304.4Z" fill="#9A4A4D"/>
<path d="M408.576 299.1L386.376 286.3C386.176 286.2 385.876 286.2 385.676 286.3L363.476 299.1C363.276 299.2 363.076 299.5 363.076 299.7H364.676L385.976 287.4L407.276 299.7H408.876C408.876 299.5 408.776 299.2 408.576 299.1Z" fill="#37474F"/>
<path d="M393.976 307.6C393.276 306.3 392.676 304.9 392.176 303.5V303.4C391.976 302.7 391.676 302 391.576 301.3C391.476 301 391.376 300.7 391.476 300.4C391.576 300.1 391.676 299.8 391.876 299.5C392.176 298.7 392.576 298 392.976 297.3C393.376 296.7 393.776 296.1 393.476 295.3C393.276 294.8 392.976 294.5 392.676 294.1C392.176 293.5 391.576 293 391.076 292.5C390.676 292 390.376 291.8 390.576 291.2C390.676 290.8 390.476 290.5 390.176 290.3C389.876 290.1 389.576 290 389.376 289.7C389.176 289.4 389.076 289.1 388.876 288.8C388.776 288.5 388.576 288.3 388.476 288C388.176 287.4 387.976 286.7 387.676 286.1C387.276 285.2 386.876 284.3 386.176 283.6C384.976 282.4 382.376 281.8 381.076 283.3C380.576 282 379.376 281.2 378.176 281.7C376.576 282.3 376.176 284.3 376.076 285.9C376.076 286.2 376.076 286.4 376.176 286.6C376.376 287 376.876 287.2 377.176 287.4C377.376 287.5 377.976 287.7 377.576 288C376.676 288.8 375.176 288.4 373.976 287.9C372.976 287.4 372.076 286.8 371.076 286.2C370.976 286.1 370.876 286.1 370.776 286C370.776 285.9 370.676 285.8 370.676 285.7C370.576 283.5 370.476 281.4 370.476 279.2C370.476 278.8 370.476 278.5 370.276 278.2C370.276 278.1 370.176 278.1 370.076 278.1C369.976 278.1 369.876 278.1 369.776 278.2C369.376 278.4 368.976 278.5 368.776 278.9C368.676 279.1 368.576 279.4 368.576 279.7C368.276 282 368.176 284.4 368.176 286.7C368.176 286.9 368.176 287.2 368.276 287.4C368.376 287.8 368.776 288.2 369.076 288.5C370.176 289.5 371.276 290.4 372.276 291.5C372.476 291.7 372.676 291.9 372.876 292.1C373.176 292.4 373.476 292.7 373.576 293.1C373.676 293.3 373.676 293.6 373.576 293.8C373.576 294.1 373.476 294.4 373.476 294.7C373.476 295.9 373.376 297 373.376 298.2C373.276 300.5 373.276 302.9 373.276 305.2C373.276 305.3 373.276 305.4 373.276 305.5L383.776 311.6C385.076 312.4 387.276 312.4 388.576 311.6L394.076 308.5C394.076 308.4 394.176 308.4 394.176 308.3C394.176 308 394.076 307.8 393.976 307.6ZM380.776 287C380.776 286.9 380.776 286.8 380.876 286.8C380.876 286.6 380.976 286.6 381.076 286.8C381.176 287 381.176 287.2 381.276 287.3C381.376 287.5 381.476 287.7 381.576 287.8C381.676 287.9 381.876 288.1 381.976 288.2C381.976 288.4 380.876 288.3 380.776 288.3H380.676C380.676 288.3 380.576 288.2 380.576 288.1C380.576 287.9 380.476 287.7 380.576 287.5C380.576 287.4 380.676 287.3 380.776 287.2C380.676 287.1 380.676 287.1 380.776 287ZM383.276 301.4C383.276 301.6 383.276 301.9 383.076 302C382.776 302.2 382.676 301.7 382.676 301.5C382.576 300.8 382.476 300.2 382.476 299.5C382.476 299.3 382.276 298.7 382.476 298.5C382.576 298.3 382.976 298.8 383.076 298.9C383.176 299 383.276 299.1 383.376 299.2C383.476 299.3 383.476 299.4 383.476 299.5C383.476 299.8 383.576 300.1 383.576 300.4C383.376 300.7 383.376 301 383.276 301.4ZM390.876 296.3C390.876 296.4 390.776 296.5 390.776 296.6C390.676 296.9 390.476 297.2 390.376 297.5C390.276 297.6 389.976 296.5 389.976 296.4C389.876 295.9 389.776 295.4 389.876 294.9H389.976C390.376 295.2 390.676 295.5 390.976 295.8C390.976 296 390.976 296.1 390.876 296.3Z" fill="#263238"/>
<path d="M415.577 248C415.377 248.1 415.077 248.3 414.877 248.4C413.477 245.7 410.977 243.2 407.277 241.1C395.477 234.3 376.377 234.3 364.677 241.1C360.977 243.2 358.477 245.8 357.077 248.4C356.877 248.3 356.577 248.2 356.377 248C340.077 238.6 340.077 223.3 356.377 213.9C372.677 204.5 399.177 204.5 415.577 213.9C431.877 223.3 431.877 238.6 415.577 248Z" fill="#F38255"/>
<path opacity="0.2" d="M415.577 248C415.377 248.1 415.077 248.3 414.877 248.4C413.477 245.7 410.977 243.2 407.277 241.1C395.477 234.3 376.377 234.3 364.677 241.1C360.977 243.2 358.477 245.8 357.077 248.4C356.877 248.3 356.577 248.2 356.377 248C340.077 238.6 340.077 223.3 356.377 213.9C372.677 204.5 399.177 204.5 415.577 213.9C431.877 223.3 431.877 238.6 415.577 248Z" fill="#F38255"/>
<path opacity="0.2" d="M387.277 206.8C376.177 206.6 364.877 209 356.477 213.9C340.177 223.3 340.177 238.6 356.477 248C356.677 248.1 356.977 248.3 357.177 248.4C358.577 245.7 361.077 243.2 364.777 241.1C370.977 237.5 379.177 235.8 387.377 236V206.8H387.277Z" fill="#F38255"/>
<path d="M385.977 290.1C385.877 290.1 385.777 290.1 385.677 290L367.677 279.6C367.477 279.5 367.377 279.3 367.377 279.1C367.377 278.9 367.477 278.7 367.677 278.6L385.677 268.2C385.877 268.1 386.077 268.1 386.277 268.2L404.277 278.6C404.477 278.7 404.577 278.9 404.577 279.1C404.577 279.3 404.477 279.5 404.277 279.6L386.277 290C386.177 290.1 386.077 290.1 385.977 290.1ZM369.177 279.2L385.977 288.9L402.777 279.2L385.977 269.5L369.177 279.2Z" fill="#37474F"/>
<path d="M407.276 299.7L385.976 312L364.676 299.7H363.076C363.076 300 363.176 300.2 363.476 300.3L385.676 313.1C385.776 313.2 385.876 313.2 386.076 313.2C386.176 313.2 386.276 313.2 386.476 313.1L408.676 300.3C408.876 300.2 409.076 299.9 409.076 299.7H407.276Z" fill="#37474F"/>
<path d="M389.177 279.4C389.177 278.9 388.877 278.5 388.277 278.1C387.077 277.4 384.977 277.4 383.777 278.1C383.177 278.5 382.877 278.9 382.877 279.4C382.877 279.7 382.877 281.7 382.877 282C382.877 282.5 383.177 282.9 383.777 283.3C384.977 284 387.077 284 388.277 283.3C388.877 282.9 389.177 282.5 389.177 282C389.177 281.6 389.177 279.6 389.177 279.4Z" fill="#263238"/>
<path d="M394.977 284.9C394.877 284.9 394.777 284.9 394.677 284.8L376.677 274.4C376.377 274.2 376.277 273.9 376.477 273.6C376.677 273.3 376.977 273.2 377.277 273.4L395.277 283.8C395.577 284 395.677 284.3 395.477 284.6C395.377 284.8 395.177 284.9 394.977 284.9Z" fill="#37474F"/>
<path d="M376.977 284.9C376.777 284.9 376.577 284.8 376.477 284.6C376.277 284.3 376.377 284 376.677 283.8L394.677 273.4C394.977 273.2 395.277 273.3 395.477 273.6C395.677 273.9 395.577 274.2 395.277 274.4L377.277 284.8C377.177 284.9 377.077 284.9 376.977 284.9Z" fill="#37474F"/>
<path d="M389.177 276.9C389.177 276.4 388.877 276 388.277 275.6C387.077 274.9 384.977 274.9 383.777 275.6C383.177 276 382.877 276.4 382.877 276.9C382.877 277.2 382.877 279.2 382.877 279.5C382.877 280 383.177 280.4 383.777 280.8C384.977 281.5 387.077 281.5 388.277 280.8C388.877 280.4 389.177 280 389.177 279.5C389.177 279.2 389.177 277.1 389.177 276.9Z" fill="#263238"/>
<path d="M383.777 275.6C383.177 276 382.877 276.4 382.877 276.9C382.877 277.4 383.177 277.8 383.777 278.2C384.977 278.9 387.077 278.9 388.277 278.2C388.877 277.8 389.177 277.4 389.177 276.9C389.177 276.4 388.877 276 388.277 275.6C386.977 274.8 384.977 274.8 383.777 275.6Z" fill="#455A64"/>
<path d="M387.875 274.4C387.875 274.1 387.675 273.9 387.375 273.6C386.675 273.2 385.475 273.2 384.775 273.6C384.375 273.8 384.275 274.1 384.275 274.4C384.275 274.6 384.275 276.4 384.275 276.6C384.275 276.9 384.475 277.1 384.775 277.4C385.475 277.8 386.675 277.8 387.375 277.4C387.775 277.2 387.875 276.9 387.875 276.6C387.875 276.4 387.875 274.5 387.875 274.4Z" fill="#263238"/>
<path d="M384.676 273.6C384.276 273.8 384.176 274.1 384.176 274.4C384.176 274.7 384.376 274.9 384.676 275.2C385.376 275.6 386.576 275.6 387.276 275.2C387.676 275 387.776 274.7 387.776 274.4C387.776 274.1 387.576 273.9 387.276 273.6C386.576 273.2 385.376 273.2 384.676 273.6Z" fill="#455A64"/>
<path d="M385.977 24.9001C416.977 24.9001 456.777 28.8001 489.377 70.6001C486.277 58.3001 482.077 48.0001 466.277 31.5001C466.277 31.5001 439.977 12.2001 385.977 24.9001Z" fill="#F38255"/>
<path d="M466.277 31.4998C465.677 31.0998 439.377 12.3998 385.977 24.8998C398.777 12.9998 417.177 8.8998 432.477 8.2998C446.977 14.1998 457.877 22.5998 466.277 31.4998Z" fill="#F38255"/>
<path opacity="0.7" d="M466.277 31.4998C465.677 31.0998 439.377 12.3998 385.977 24.8998C398.777 12.9998 417.177 8.8998 432.477 8.2998C446.977 14.1998 457.877 22.5998 466.277 31.4998Z" fill="white"/>
<path d="M385.977 24.8996C398.777 12.9996 417.177 8.89961 432.477 8.29961C423.077 4.49961 412.177 1.69961 399.477 0.599609C391.977 8.49961 385.977 18.7996 385.977 24.8996Z" fill="#F38255"/>
<path d="M385.977 24.9004C429.577 31.6004 456.477 57.2004 471.777 85.6004C485.477 111 484.977 136.8 483.577 153.8C492.777 129.7 500.677 97.4004 489.377 70.6004C456.777 28.8004 416.977 24.9004 385.977 24.9004Z" fill="#F38255"/>
<path opacity="0.7" d="M385.977 24.9004C429.577 31.6004 456.477 57.2004 471.777 85.6004C485.477 111 484.977 136.8 483.577 153.8C492.777 129.7 500.677 97.4004 489.377 70.6004C456.777 28.8004 416.977 24.9004 385.977 24.9004Z" fill="white"/>
<path d="M385.976 24.9001C354.976 24.9001 315.176 28.8001 282.576 70.6001C285.676 58.3001 289.876 48.0001 305.676 31.5001C305.676 31.5001 331.976 12.2001 385.976 24.9001Z" fill="#F38255"/>
<path d="M305.676 31.4998C306.276 31.0998 332.576 12.3998 385.976 24.8998C373.176 12.9998 354.776 8.8998 339.476 8.2998C325.076 14.1998 314.176 22.5998 305.676 31.4998Z" fill="#F38255"/>
<path opacity="0.7" d="M305.676 31.4998C306.276 31.0998 332.576 12.3998 385.976 24.8998C373.176 12.9998 354.776 8.8998 339.476 8.2998C325.076 14.1998 314.176 22.5998 305.676 31.4998Z" fill="white"/>
<path d="M385.977 24.8996C373.177 12.9996 354.777 8.89961 339.477 8.29961C348.877 4.49961 359.777 1.69961 372.477 0.599609C380.077 8.49961 385.977 18.7996 385.977 24.8996Z" fill="#F38255"/>
<path d="M385.977 24.9004C342.377 31.6004 315.477 57.2004 300.177 85.6004C286.477 111 286.977 136.8 288.377 153.8C279.177 129.7 271.277 97.4004 282.577 70.6004C315.177 28.8004 355.077 24.9004 385.977 24.9004Z" fill="#F38255"/>
<path opacity="0.7" d="M385.977 24.9004C342.377 31.6004 315.477 57.2004 300.177 85.6004C286.477 111 286.977 136.8 288.377 153.8C279.177 129.7 271.277 97.4004 282.577 70.6004C315.177 28.8004 355.077 24.9004 385.977 24.9004Z" fill="white"/>
<path d="M288.377 153.8C287.077 136.8 286.477 111 300.177 85.6004C315.477 57.2004 342.477 31.6004 385.977 24.9004C347.577 34.7004 322.677 83.6004 320.577 133.9C319.077 168.8 325.777 200.9 338.477 225C321.677 209 297.577 187.6 288.377 153.8Z" fill="#F38255"/>
<path d="M373.876 248.1C370.176 247.1 365.876 245.5 361.376 242.8C354.476 238.7 345.676 234.5 338.576 225C325.876 200.9 319.176 168.8 320.676 133.9C322.776 83.7004 347.676 34.7004 386.076 24.9004C355.076 65.3004 350.876 172.3 373.876 248.1Z" fill="#F38255"/>
<path opacity="0.7" d="M373.876 248.1C370.176 247.1 365.876 245.5 361.376 242.8C354.476 238.7 345.676 234.5 338.576 225C325.876 200.9 319.176 168.8 320.676 133.9C322.776 83.7004 347.676 34.7004 386.076 24.9004C355.076 65.3004 350.876 172.3 373.876 248.1Z" fill="white"/>
<path d="M483.676 153.8C484.976 136.8 485.576 111 471.876 85.6004C456.576 57.2004 429.576 31.6004 386.076 24.9004C424.476 34.7004 449.376 83.6004 451.476 133.9C452.976 168.8 446.276 200.9 433.576 225C450.376 209 474.476 187.6 483.676 153.8Z" fill="#F38255"/>
<path d="M398.177 248.1C401.877 247.1 406.177 245.5 410.677 242.8C417.577 238.7 426.377 234.5 433.477 225C446.177 200.9 452.877 168.8 451.377 133.9C449.277 83.7004 424.377 34.7004 385.977 24.9004C416.877 65.3004 421.077 172.3 398.177 248.1Z" fill="#F38255"/>
<path opacity="0.7" d="M398.177 248.1C401.877 247.1 406.177 245.5 410.677 242.8C417.577 238.7 426.377 234.5 433.477 225C446.177 200.9 452.877 168.8 451.377 133.9C449.277 83.7004 424.377 34.7004 385.977 24.9004C416.877 65.3004 421.077 172.3 398.177 248.1Z" fill="white"/>
<path d="M399.477 0.599998C392.077 8.5 386.077 18.7 385.977 24.8C385.877 18.7 379.977 8.5 372.477 0.599998C376.777 0.199998 381.277 0 385.977 0C390.677 0 395.177 0.199998 399.477 0.599998Z" fill="#F38255"/>
<path opacity="0.7" d="M399.477 0.599998C392.077 8.5 386.077 18.7 385.977 24.8C385.877 18.7 379.977 8.5 372.477 0.599998C376.777 0.199998 381.277 0 385.977 0C390.677 0 395.177 0.199998 399.477 0.599998Z" fill="white"/>
<path d="M385.976 24.9004C416.876 65.3004 421.076 172.3 398.076 248.1C390.876 250 385.876 249.6 385.876 249.6C385.876 249.6 380.876 250 373.776 248.1C350.876 172.3 355.076 65.3004 385.976 24.9004Z" fill="#F38255"/>
<path d="M385.977 36.6002C397.41 36.6002 406.677 31.3619 406.677 24.9002C406.677 18.4385 397.41 13.2002 385.977 13.2002C374.545 13.2002 365.277 18.4385 365.277 24.9002C365.277 31.3619 374.545 36.6002 385.977 36.6002Z" fill="#FAFAFA"/>
<path opacity="0.3" d="M433.477 225C437.177 218 440.377 210.3 442.977 202C437.877 214.2 414.477 235.1 415.877 185.4C417.277 137.9 409.677 93.9002 408.977 89.7002C409.077 90.1002 409.077 90.5002 409.177 91.0002C409.377 92.3002 409.577 93.7002 409.777 95.0002C414.477 130.8 413.577 167.3 408.277 202.9C405.877 218.6 402.577 233.9 398.277 248.1C399.177 247.9 400.077 247.6 401.077 247.3C404.077 246.3 407.377 244.9 410.777 242.8C417.577 238.6 426.377 234.5 433.477 225Z" fill="#F38255"/>
<path opacity="0.3" d="M365.177 210.9C365.077 210.9 365.077 210.9 365.177 210.9C364.677 210.5 347.577 197.2 336.877 161.6C324.477 119.9 348.477 51.9998 349.077 50.2998C343.877 56.7998 339.277 64.2998 335.377 72.2998C328.677 86.2998 324.377 101.3 322.177 116.6C321.377 122.3 320.777 128 320.577 133.8C319.077 168.7 325.777 200.8 338.477 224.9C345.377 234.1 353.777 238.3 360.577 242.3C360.777 242.4 361.077 242.6 361.277 242.7C362.177 243.3 363.077 243.7 363.977 244.2C366.277 245.4 368.577 246.3 370.677 247.1C371.777 247.5 372.777 247.8 373.777 248C370.277 236.3 367.377 223.8 365.177 210.9Z" fill="#F38255"/>
<path opacity="0.3" d="M288.377 153.8C287.077 136.8 286.477 111 300.177 85.6002C301.877 82.4002 303.777 79.2002 305.877 76.1002C305.577 76.5002 305.277 77.0002 305.077 77.4002C305.077 77.4002 300.977 71.8002 305.777 58.1002C310.477 44.5002 327.777 34.9002 328.177 34.7002C312.477 41.3002 296.877 52.4002 282.577 70.6002C271.277 97.4002 279.177 129.6 288.377 153.8Z" fill="#F38255"/>
<path opacity="0.3" d="M325.176 23.4998C327.376 19.5998 332.776 14.5998 344.176 8.5998C342.576 8.4998 341.076 8.3998 339.576 8.2998C339.376 8.3998 339.176 8.4998 338.976 8.5998C331.976 11.4998 325.876 14.9998 320.376 18.7998C319.876 19.0998 319.476 19.4998 318.976 19.7998C313.976 23.4998 309.576 27.3998 305.676 31.4998C305.976 31.1998 312.476 26.6998 325.176 23.4998Z" fill="#F38255"/>
<path opacity="0.2" d="M453.676 181.201C455.276 155.601 451.076 127.001 451.076 126.801C451.176 127.801 451.276 128.801 451.276 129.801C452.776 154.101 450.476 178.801 443.076 202.001C440.476 210.201 437.276 218.001 433.576 225.001C433.676 224.901 433.776 224.801 433.876 224.801C435.776 223.001 437.876 221.001 439.976 219.001C454.676 205.101 468.676 189.801 477.276 171.301C478.076 169.701 478.776 168.001 479.476 166.401C479.076 166.701 452.076 206.701 453.676 181.201Z" fill="black"/>
<path opacity="0.2" d="M408.176 202.901C407.576 204.901 398.776 240.201 382.776 218.501C367.576 197.801 361.476 122.001 367.976 65.6006C367.976 65.8006 367.876 65.9006 367.876 66.1006C367.876 66.2006 367.876 66.3006 367.776 66.3006C367.776 66.5006 367.676 66.7006 367.676 66.8006C364.876 78.5006 362.776 90.4006 361.376 102.301C359.276 121.101 358.776 141.301 359.676 161.701C360.376 175.401 361.776 189.001 363.676 202.401C364.076 205.201 364.576 208.001 365.076 210.801C365.076 210.801 365.076 210.801 365.076 210.901C367.376 223.801 370.276 236.301 373.776 248.101C374.276 248.201 374.676 248.301 375.176 248.501C375.376 248.501 375.576 248.601 375.676 248.601C375.976 248.701 376.176 248.701 376.476 248.801C376.676 248.801 376.876 248.901 377.076 248.901C377.276 248.901 377.476 249.001 377.676 249.001C377.876 249.001 378.076 249.101 378.376 249.101C378.576 249.101 378.776 249.201 378.876 249.201C379.076 249.201 379.276 249.301 379.476 249.301C379.676 249.301 379.876 249.301 379.976 249.401C380.176 249.401 380.376 249.401 380.476 249.501C380.676 249.501 380.876 249.501 381.076 249.601C381.176 249.601 381.276 249.601 381.376 249.601C381.976 249.701 382.576 249.701 383.076 249.701C383.376 249.701 383.576 249.701 383.776 249.701C385.076 249.701 385.776 249.701 385.776 249.701C385.776 249.701 390.776 250.101 397.976 248.201C402.476 233.901 405.776 218.601 408.176 202.901Z" fill="black"/>
<path opacity="0.2" d="M320.575 133.8C320.775 128 321.375 122.3 322.175 116.6C322.175 116.8 322.075 116.9 322.075 117.1C304.375 75.1004 339.575 43.0004 351.275 35.4004C351.075 35.5004 350.875 35.6004 350.675 35.7004C332.375 44.7004 316.875 58.9004 305.875 76.0004C303.875 79.1004 301.975 82.3004 300.175 85.5004C286.475 110.9 286.975 136.7 288.375 153.7C295.675 180.7 312.475 199.7 327.575 214.4C328.475 215.3 329.375 216.1 330.175 216.9C330.275 217 330.275 217 330.375 217.1C333.175 219.8 335.975 222.4 338.475 224.8C325.775 200.8 319.075 168.8 320.575 133.8Z" fill="black"/>
<path opacity="0.2" d="M328.176 34.7006C328.176 34.7006 320.976 31.0006 325.176 23.6006C312.176 26.8006 305.676 31.5006 305.676 31.5006C304.776 32.5006 303.876 33.4006 303.076 34.3006C298.276 39.5006 294.676 44.1006 291.976 48.4006C286.876 56.3006 284.576 63.0006 282.676 70.6006C296.876 52.3006 312.476 41.3006 328.176 34.7006Z" fill="black"/>
<path opacity="0.2" d="M339.576 8.30039C341.076 8.40039 342.676 8.50039 344.176 8.60039C347.276 6.90039 350.876 5.20039 354.976 3.40039C349.476 4.70039 344.276 6.40039 339.576 8.30039Z" fill="black"/>
<path d="M424.169 235.333L402.717 279.056L403.076 279.232L424.528 235.509L424.169 235.333Z" fill="#37474F"/>
<path d="M399.275 282.1L398.875 282L412.775 241.1L413.075 241.2L399.275 282.1Z" fill="#37474F"/>
<path d="M402.424 243.738L394.816 284.332L395.111 284.387L402.719 243.794L402.424 243.738Z" fill="#37474F"/>
<path d="M390.075 287L389.775 286.9L391.575 245.2L391.875 245.3L390.075 287Z" fill="#37474F"/>
<path d="M347.847 235.396L347.488 235.572L368.975 279.276L369.334 279.099L347.847 235.396Z" fill="#37474F"/>
<path d="M372.775 282.1L358.875 241.2L359.175 241.1L373.075 282L372.775 282.1Z" fill="#37474F"/>
<path d="M369.449 243.732L369.154 243.787L376.799 284.373L377.094 284.317L369.449 243.732Z" fill="#37474F"/>
<path d="M381.876 287L380.076 245.3L380.476 245.2L382.276 286.9L381.876 287Z" fill="#37474F"/>
<path d="M415.577 248C415.377 248.1 415.077 248.3 414.877 248.4C398.677 257.3 373.277 257.3 357.077 248.4C356.877 248.3 356.577 248.2 356.377 248C351.777 245.4 348.477 242.2 346.477 238.9L357.077 258.3L357.277 258.7C358.677 261.2 361.177 263.6 364.677 265.6C376.477 272.4 395.577 272.4 407.277 265.6C410.777 263.6 413.177 261.2 414.677 258.7L414.877 258.3L425.477 238.9C423.477 242.3 420.177 245.4 415.577 248Z" fill="#F38255"/>
<path opacity="0.1" d="M372.976 264.1C365.376 259.2 363.976 254.5 371.476 253.6C366.276 252.5 361.376 250.8 357.176 248.4C356.976 248.3 356.676 248.2 356.476 248C351.876 245.4 348.576 242.2 346.576 238.9L357.176 258.3L357.376 258.7C358.776 261.2 361.276 263.6 364.776 265.6C373.576 270.7 386.376 271.9 397.176 269.5C386.976 270 378.076 267.4 372.976 264.1Z" fill="#F38255"/>
<path d="M432.977 225.5C430.577 229.4 426.677 232.9 421.477 235.9C420.677 236.4 419.877 236.8 418.977 237.2C400.177 246.7 371.877 246.7 353.077 237.2C352.177 236.8 351.377 236.3 350.577 235.9C345.377 232.9 341.477 229.3 339.077 225.5C337.677 224.2 336.377 222.9 334.977 221.5C336.877 227.6 341.877 233.3 349.577 237.7C353.277 239.8 357.277 241.5 361.677 242.9C369.277 245.3 377.677 246.4 386.077 246.4C394.477 246.4 402.877 245.2 410.477 242.9C414.777 241.6 418.877 239.8 422.577 237.7C430.277 233.2 435.377 227.6 437.177 221.4C435.677 222.9 434.377 224.2 432.977 225.5Z" fill="#37474F"/>
<path d="M407.476 299.8L403.176 279.3L404.576 279L408.776 299.5L407.476 299.8Z" fill="#37474F"/>
<path d="M364.576 299.8L363.176 299.5L367.476 279L368.776 279.3L364.576 299.8Z" fill="#37474F"/>
<path d="M386.675 289.4H385.275V312.5H386.675V289.4Z" fill="#37474F"/>
<path d="M291.2 417.2C292.5 416.6 293.9 416.6 295 416.5C296.2 416.4 296.6 416.2 296.9 415.9C299.9 411.6 304.9 411.4 307.8 412.7C308.5 409.7 312.1 407.2 316.1 408C316 404.2 320.9 400 325.3 399.1C329.5 398.2 333.2 398.6 335.6 401.4C338.2 396.3 348.3 394.9 353.8 397.6C357 399.1 359.6 400.7 360.9 403.6C361.8 405.5 362.1 406.8 362.1 409.3C364.2 407.4 368.5 406.9 371.4 408C374.5 409.2 374.7 411.5 374.9 413.9C377.9 413.1 379.9 413.6 380.5 413.8C382.4 414.4 383.6 415.9 383.3 417.1C384.8 417 388.5 418.3 388.1 419.9C387.6 421.7 383.5 421.5 381.9 421.5C380.9 421.5 379.9 421.2 379 420.9C378.9 420.9 378.7 420.8 378.5 420.8C378.2 420.8 378 421 377.8 421.2C374.9 423.3 370.5 422.8 367.7 420.8C366.4 421.7 365 422.5 364.8 422.6C363.4 423.3 362 423.9 360.5 424.3C357.4 425.2 353.9 425.6 350.7 424.8C348.9 424.4 347 423.7 345.4 422.7C344.6 422.2 343.8 421.5 343.2 420.7C342.8 421.5 342.1 422.3 341.4 422.9C339.9 424.1 337.9 425 335.7 425.2C333.2 425.4 326.4 425.8 324.5 421.7C323.1 424.4 317.1 425.6 312.5 424.9C310.8 424.7 308.9 424.1 307.4 423.3C306.2 422.7 305.5 422.2 304.4 421.5C303.5 421 303.1 421 301.9 421.3C298.8 422.2 295.1 422.6 291.9 421.3C289.3 420.5 288.8 418.3 291.2 417.2Z" fill="white" stroke="#FACAB5" stroke-miterlimit="10"/>
<g opacity="0.2">
<path d="M347.301 397.2C349.601 397.2 351.801 397.6 353.401 398.4C356.801 400 359.001 401.5 360.101 403.9C360.901 405.6 361.201 406.7 361.201 409.2C361.201 409.6 361.401 409.9 361.801 410.1C361.901 410.2 362.101 410.2 362.201 410.2C362.401 410.2 362.701 410.1 362.901 410C364.001 409 366.001 408.4 368.101 408.4C369.201 408.4 370.301 408.6 371.101 408.9C373.501 409.8 373.801 411.4 373.901 413.9C373.901 414.2 374.101 414.5 374.301 414.6C374.501 414.7 374.701 414.8 374.901 414.8C375.001 414.8 375.101 414.8 375.101 414.8C376.101 414.5 377.101 414.4 378.001 414.4C379.101 414.4 379.801 414.6 380.201 414.7C381.601 415.1 382.401 416.2 382.301 416.9C382.201 417.2 382.301 417.5 382.501 417.8C382.701 418 383.001 418.2 383.301 418.2C383.301 418.2 383.301 418.2 383.401 418.2H383.501C385.001 418.2 387.101 419.3 387.101 419.7C387.101 419.7 386.801 420.6 383.301 420.6C382.801 420.6 382.301 420.6 382.001 420.6H381.901C381.101 420.6 380.401 420.4 379.601 420.2L379.201 420.1C379.001 420.1 378.801 420 378.601 420C378.501 420 378.501 420 378.401 420C377.901 420 377.501 420.3 377.301 420.5H377.201C376.101 421.3 374.801 421.7 373.201 421.7C371.401 421.7 369.601 421.1 368.301 420.2C368.101 420.1 367.901 420 367.701 420C367.501 420 367.301 420.1 367.101 420.2C365.801 421.1 364.401 421.8 364.301 421.9C362.901 422.6 361.501 423.2 360.201 423.6C358.201 424.2 356.301 424.5 354.401 424.5C353.201 424.5 352.001 424.4 350.901 424.1C349.001 423.7 347.301 423 346.001 422.1C345.201 421.6 344.601 421 344.001 420.3C343.801 420.1 343.501 419.9 343.201 419.9H343.101C342.801 419.9 342.501 420.2 342.301 420.5C342.001 421.2 341.401 421.8 340.701 422.4C339.301 423.5 337.401 424.3 335.601 424.5C334.701 424.6 333.901 424.6 333.101 424.6C330.201 424.6 326.501 424.1 325.401 421.6C325.201 421.3 324.901 421 324.501 421C324.101 421 323.801 421.2 323.601 421.5C322.801 423.1 319.101 424.4 315.101 424.4C314.301 424.4 313.401 424.3 312.701 424.2C311.101 424 309.301 423.4 307.901 422.7C307.201 422.4 306.701 422 306.101 421.6C305.801 421.4 305.501 421.2 305.101 421C304.601 420.7 304.001 420.4 303.301 420.4C302.801 420.4 302.401 420.5 301.701 420.7C299.901 421.2 298.201 421.5 296.601 421.5C295.001 421.5 293.601 421.2 292.401 420.7C291.301 420.2 290.801 419.6 290.801 419.2C290.801 418.9 291.101 418.5 291.801 418.2C292.801 417.8 294.001 417.7 294.901 417.6H295.301C296.601 417.5 297.301 417.2 297.801 416.7C297.801 416.7 297.801 416.6 297.901 416.6C300.001 413.6 303.001 413.1 304.501 413.1C305.601 413.1 306.701 413.3 307.601 413.7C307.701 413.8 307.901 413.8 308.001 413.8C308.201 413.8 308.301 413.8 308.501 413.7C308.801 413.6 309.001 413.3 309.001 413C309.501 411 311.801 408.9 314.701 408.9C315.101 408.9 315.601 408.9 316.001 409C316.101 409 316.101 409 316.201 409C316.401 409 316.701 408.9 316.801 408.8C317.001 408.6 317.201 408.3 317.201 408C317.101 404.6 321.701 400.9 325.601 400.1C326.901 399.8 328.101 399.7 329.101 399.7C331.601 399.7 333.601 400.5 334.901 402.1C335.101 402.3 335.401 402.4 335.701 402.4H335.801C336.101 402.4 336.401 402.2 336.601 401.9C337.901 399.1 342.301 397.2 347.301 397.2ZM347.301 396.2C342.501 396.2 337.401 398 335.701 401.3C334.001 399.4 331.801 398.6 329.101 398.6C327.901 398.6 326.701 398.8 325.301 399C320.901 399.9 316.001 404.1 316.101 407.9C315.601 407.8 315.001 407.7 314.501 407.7C311.201 407.7 308.401 410 307.801 412.5C306.801 412.1 305.601 411.8 304.301 411.8C301.701 411.8 298.801 412.8 296.801 415.7C296.601 416 296.201 416.2 294.901 416.3C293.801 416.4 292.301 416.4 291.101 417C288.701 418.1 289.201 420.2 291.801 421.3C293.301 421.9 294.801 422.2 296.401 422.2C298.201 422.2 300.101 421.9 301.801 421.3C302.301 421.1 302.701 421 303.101 421C303.501 421 303.901 421.1 304.301 421.4C305.401 422 306.001 422.6 307.301 423.2C308.801 423.9 310.701 424.5 312.401 424.8C313.201 424.9 314.101 425 315.001 425C319.001 425 323.301 423.8 324.401 421.6C325.801 424.6 330.001 425.2 333.001 425.2C334.001 425.2 334.901 425.1 335.601 425.1C337.801 424.9 339.801 424 341.301 422.8C342.101 422.2 342.701 421.4 343.101 420.6C343.701 421.4 344.501 422 345.301 422.6C346.901 423.7 348.701 424.3 350.601 424.7C351.801 425 353.001 425.1 354.301 425.1C356.401 425.1 358.501 424.8 360.401 424.2C361.901 423.8 363.301 423.2 364.701 422.5C364.901 422.4 366.301 421.6 367.601 420.7C369.101 421.8 371.101 422.4 373.101 422.4C374.701 422.4 376.301 422 377.601 421.1C377.801 420.9 378.001 420.8 378.301 420.7C378.301 420.7 378.301 420.7 378.401 420.7C378.501 420.7 378.701 420.7 378.801 420.8C379.801 421.1 380.701 421.3 381.701 421.4C382.101 421.4 382.601 421.4 383.101 421.4C385.001 421.4 387.501 421.2 387.901 419.8C388.301 418.2 384.901 417 383.301 417C383.201 417 383.201 417 383.101 417C383.401 415.8 382.201 414.2 380.301 413.7C380.001 413.6 379.101 413.4 377.901 413.4C377.001 413.4 376.001 413.5 374.701 413.8C374.501 411.4 374.301 409.1 371.201 407.9C370.201 407.5 369.001 407.3 367.801 407.3C365.601 407.3 363.301 407.9 361.901 409.2C361.901 406.6 361.601 405.4 360.701 403.5C359.401 400.6 356.701 399 353.601 397.5C352.001 396.7 349.701 396.2 347.301 396.2Z" fill="#BA68C8" stroke="#FACAB5" stroke-miterlimit="10"/>
</g>
<path d="M413.5 362.8C407.8 360.6 401.6 365.3 397.5 371.6C393.9 367 384.9 361.7 380.1 366.2C386.6 364.1 393.1 368.1 396.8 373.2C397.1 373.5 397.9 373.9 398.2 373.3C402.2 366.2 408.2 362.6 413.5 362.8Z" fill="#455A64"/>
<path d="M438.2 387.6C434 385.5 428.6 390.1 426.5 394.2C424 390.4 419.7 385.9 414.9 387.8C420.3 387.7 423.4 391.1 425.9 395.4C426.1 395.7 426.7 396.1 427 395.6C429.3 390.7 434.2 387 438.2 387.6Z" fill="#455A64"/>
<g filter="url(#filter0_d_623_677)">
<path d="M480.549 543C478.849 542.2 476.749 542.1 475.249 542C473.549 541.9 473.049 541.5 472.649 541.2C468.549 535.3 461.649 535 457.549 536.7C456.549 532.6 451.649 529.1 446.149 530.3C446.349 525 439.549 519.3 433.449 518C427.649 516.8 422.549 517.3 419.249 521.1C415.649 514.1 401.749 512.2 394.149 515.9C389.849 518 386.149 520.2 384.349 524.2C383.149 526.8 382.749 528.6 382.749 532.1C379.849 529.5 373.949 528.8 369.949 530.3C365.749 531.9 365.349 535.1 365.149 538.4C360.949 537.4 358.249 538 357.449 538.3C354.749 539.1 353.249 541.2 353.649 542.9C351.549 542.8 346.449 544.5 347.049 546.7C347.549 548.5 349.949 548.7 351.449 548.8C354.049 549 356.749 548.8 359.249 548C360.149 547.7 361.249 548.5 362.049 548.9C363.849 549.6 365.849 549.9 367.749 549.7C369.549 549.5 371.249 549.2 372.849 548.3C375.849 550.9 379.349 552.4 383.149 553.4C391.649 555.6 403.649 554.2 408.849 547.9C409.349 549 410.349 550.1 411.349 551C413.449 552.7 416.249 553.9 419.149 554.2C422.649 554.5 431.949 555 434.549 549.4C436.449 553.1 444.749 554.8 451.049 553.9C453.449 553.6 456.049 552.7 458.149 551.8C459.849 551 460.749 550.2 462.249 549.4C463.449 548.7 464.049 548.7 465.749 549.2C470.049 550.5 475.149 551 479.549 549.2C483.149 547.4 483.849 544.5 480.549 543Z" fill="white" stroke="#DB805B" stroke-miterlimit="10"/>
<g opacity="0.2">
<path d="M403.348 515C409.248 515 416.148 517 418.548 521.5C418.748 521.8 418.948 522 419.348 522H419.448C419.748 522 420.048 521.9 420.248 521.7C422.248 519.4 424.948 518.3 428.548 518.3C430.048 518.3 431.748 518.5 433.548 518.9C439.048 520.1 445.548 525.4 445.448 530.2C445.448 530.5 445.548 530.8 445.848 531C446.048 531.2 446.248 531.2 446.448 531.2C446.548 531.2 446.548 531.2 446.648 531.2C447.248 531.1 447.948 531 448.548 531C452.848 531 456.048 534 456.848 536.9C456.948 537.2 457.148 537.4 457.348 537.6C457.448 537.7 457.648 537.7 457.848 537.7C457.948 537.7 458.148 537.7 458.248 537.6C459.548 537.1 461.148 536.8 462.648 536.8C464.848 536.8 469.148 537.4 472.148 541.7C472.148 541.7 472.148 541.8 472.248 541.8C472.848 542.5 473.848 542.8 475.448 543H475.948C477.348 543.1 479.048 543.2 480.348 543.8C480.948 544.1 481.948 544.6 481.848 545.5C481.848 546.4 480.848 547.3 479.348 547.9C477.548 548.6 475.548 549 473.348 549C471.148 549 468.748 548.6 466.248 547.9C465.448 547.7 464.848 547.5 464.248 547.5C463.448 547.5 462.748 547.8 462.048 548.2C461.548 548.5 461.048 548.8 460.648 549.1C459.848 549.6 459.048 550.1 458.048 550.6C456.048 551.6 453.448 552.3 451.248 552.6C450.148 552.8 449.048 552.8 447.848 552.8C442.148 552.8 436.948 551 435.748 548.7C435.548 548.4 435.248 548.2 434.848 548.2C434.448 548.2 434.148 548.4 433.948 548.8C432.248 552.4 427.048 553.2 422.948 553.2C421.848 553.2 420.648 553.1 419.548 553C416.848 552.8 414.248 551.7 412.248 550C411.248 549.2 410.448 548.2 409.948 547.3C409.848 547 409.548 546.8 409.148 546.7H409.048C408.748 546.7 408.448 546.8 408.248 547.1C405.148 550.9 398.848 553.2 391.448 553.2C388.748 553.2 386.048 552.9 383.648 552.3C379.348 551.2 376.248 549.7 373.748 547.5C373.548 547.3 373.348 547.2 373.048 547.2C372.848 547.2 372.748 547.2 372.548 547.3C371.048 548.1 369.248 548.4 367.848 548.5C367.448 548.5 367.148 548.6 366.748 548.6C365.348 548.6 363.948 548.3 362.548 547.8C362.348 547.7 362.148 547.6 361.948 547.5C361.348 547.2 360.648 546.8 359.848 546.8C359.548 546.8 359.348 546.8 359.148 546.9C357.548 547.5 355.648 547.7 353.648 547.7C353.048 547.7 352.448 547.7 351.748 547.6C350.248 547.5 348.548 547.2 348.248 546.2C348.248 546.1 348.148 546 348.448 545.7C349.248 544.6 352.048 543.7 353.648 543.7C353.748 543.7 353.748 543.7 353.848 543.7C353.848 543.7 353.848 543.7 353.948 543.7C354.248 543.7 354.548 543.6 354.748 543.3C354.948 543.1 355.048 542.7 354.948 542.4C354.748 541.3 355.948 539.6 358.148 539C358.648 538.9 359.648 538.6 361.248 538.6C362.548 538.6 363.948 538.8 365.348 539.1C365.448 539.1 365.548 539.1 365.548 539.1C365.748 539.1 365.948 539 366.148 538.9C366.348 538.7 366.548 538.5 366.548 538.2C366.748 534.7 367.148 532.3 370.648 531C371.848 530.5 373.348 530.3 374.948 530.3C377.948 530.3 380.748 531.2 382.448 532.6C382.648 532.8 382.848 532.8 383.148 532.8C383.248 532.8 383.448 532.8 383.548 532.7C383.948 532.5 384.148 532.2 384.148 531.8C384.148 528.5 384.548 526.9 385.648 524.3C387.248 520.8 390.248 518.8 395.048 516.5C397.048 515.6 400.048 515 403.348 515ZM403.348 514C400.048 514 396.848 514.6 394.348 515.8C390.048 517.9 386.348 520.1 384.548 524.1C383.348 526.7 382.948 528.5 382.948 532C381.048 530.3 377.848 529.4 374.848 529.4C373.148 529.4 371.548 529.7 370.148 530.2C365.948 531.8 365.548 535 365.348 538.3C363.648 537.9 362.148 537.7 360.948 537.7C359.248 537.7 358.048 538 357.548 538.1C354.848 538.9 353.348 541 353.748 542.7C353.648 542.7 353.648 542.7 353.548 542.7C351.348 542.7 346.648 544.4 347.148 546.5C347.648 548.3 350.048 548.5 351.548 548.6C352.248 548.6 352.848 548.7 353.548 548.7C355.548 548.7 357.548 548.5 359.448 547.8C359.548 547.8 359.748 547.7 359.848 547.7C360.648 547.7 361.548 548.4 362.248 548.6C363.748 549.1 365.248 549.4 366.848 549.4C367.248 549.4 367.648 549.4 368.048 549.3C369.848 549.1 371.548 548.8 373.148 547.9C376.148 550.5 379.648 552 383.448 553C385.948 553.6 388.648 554 391.548 554C398.348 554 405.448 552 409.148 547.5C409.648 548.6 410.648 549.7 411.648 550.6C413.748 552.3 416.548 553.5 419.448 553.8C420.348 553.9 421.548 554 422.948 554C427.148 554 432.848 553.2 434.848 549.1C436.348 552.1 442.248 553.8 447.848 553.8C449.048 553.8 450.248 553.7 451.348 553.6C453.748 553.3 456.348 552.4 458.448 551.5C460.148 550.7 461.048 549.9 462.548 549.1C463.248 548.7 463.748 548.5 464.248 548.5C464.748 548.5 465.248 548.6 465.948 548.9C468.248 549.6 470.848 550.1 473.348 550.1C475.548 550.1 477.648 549.8 479.748 548.9C483.248 547.4 484.048 544.5 480.748 543C479.048 542.2 476.948 542.1 475.448 542C473.748 541.9 473.248 541.5 472.848 541.2C470.048 537.2 466.148 535.8 462.548 535.8C460.748 535.8 459.148 536.2 457.748 536.7C456.848 533.2 453.048 530 448.548 530C447.848 530 447.148 530.1 446.448 530.2C446.648 524.9 439.848 519.2 433.748 517.9C431.948 517.5 430.248 517.3 428.548 517.3C424.948 517.3 421.748 518.4 419.448 521C416.948 516.4 409.948 514 403.348 514Z" fill="white" stroke="#DB805B" stroke-miterlimit="10"/>
</g>
</g>
<path d="M163.165 664.4C163.565 664.6 163.665 664.9 163.665 665.1C163.665 665.4 163.665 673.4 163.665 673.7C163.665 674 163.465 674.2 163.165 674.4L153.665 679.9C152.965 680.3 151.765 680.3 151.065 679.9L141.465 674.3C141.065 674.1 140.965 673.8 140.965 673.6C140.965 673.3 140.965 665.3 140.965 665C140.965 664.7 141.165 664.5 141.465 664.3L150.965 658.8C151.665 658.4 152.865 658.4 153.565 658.8L163.165 664.4Z" fill="#C8856A"/>
<path d="M151.065 671.4L141.465 665.8C141.165 665.6 140.965 665.4 140.965 665.1C140.965 665.6 140.965 673.4 140.965 673.7C140.965 674 141.165 674.2 141.465 674.4L151.065 680C151.365 680.2 151.865 680.3 152.365 680.3C152.365 678.6 152.365 673.1 152.365 671.7C151.865 671.7 151.365 671.6 151.065 671.4Z" fill="#AF6152"/>
<path d="M153.565 671.4L163.065 665.9C163.465 665.7 163.565 665.4 163.565 665.2C163.565 665 163.365 664.7 163.065 664.5L153.465 658.9C152.765 658.5 151.565 658.5 150.865 658.9L141.365 664.4C140.965 664.6 140.865 664.9 140.865 665.1C140.865 665.3 141.065 665.6 141.365 665.8L150.965 671.4C151.765 671.8 152.865 671.8 153.565 671.4Z" fill="#F0997A"/>
<path opacity="0.1" d="M163.167 664.4L153.567 658.8C152.867 658.4 151.667 658.4 150.967 658.8L141.467 664.3C141.067 664.5 140.967 664.8 140.967 665C140.967 665.1 140.967 665.9 140.967 667.1L151.067 672.9C151.767 673.3 153.067 673.3 153.767 672.9L163.767 667.1C163.767 665.9 163.767 665.1 163.767 665C163.667 664.9 163.467 664.6 163.167 664.4Z" fill="black"/>
<path d="M163.666 662.3C164.066 662.5 164.266 662.8 164.266 663.1C164.266 663.4 164.266 664.8 164.266 665.1C164.266 665.4 164.066 665.7 163.666 665.9L153.666 671.7C152.966 672.1 151.666 672.1 150.966 671.7L140.766 665.8C140.366 665.6 140.166 665.3 140.166 665C140.166 664.7 140.166 663.3 140.166 663C140.166 662.7 140.366 662.4 140.766 662.2L150.766 656.4C151.466 656 152.766 656 153.466 656.4L163.666 662.3Z" fill="#C8856A"/>
<path d="M150.966 669.6L140.866 663.8C140.466 663.6 140.366 663.3 140.266 663.1C140.266 663.6 140.266 664.8 140.266 665C140.266 665.3 140.466 665.6 140.866 665.8L151.066 671.7C151.466 671.9 151.866 672 152.366 672C152.366 670.2 152.366 671.5 152.366 670C151.866 670 151.366 669.8 150.966 669.6Z" fill="#AF6152"/>
<path d="M153.666 669.6L163.666 663.8C164.066 663.6 164.266 663.3 164.266 663C164.266 662.7 164.066 662.4 163.666 662.2L153.466 656.3C152.766 655.9 151.466 655.9 150.766 656.3L140.766 662.1C140.366 662.3 140.166 662.6 140.166 662.9C140.166 663.2 140.366 663.5 140.766 663.7L150.966 669.6C151.766 670.1 152.966 670.1 153.666 669.6Z" fill="#F0997A"/>
<path d="M153.566 668.9L162.366 663.8C162.666 663.6 162.866 663.4 162.866 663.1C162.866 662.8 162.666 662.6 162.366 662.4L153.366 657.2C152.666 656.8 151.666 656.8 150.966 657.2L142.166 662.3C141.866 662.5 141.666 662.7 141.666 663C141.666 663.3 141.866 663.5 142.166 663.7L151.166 668.9C151.766 669.2 152.866 669.2 153.566 668.9Z" fill="#B16668"/>
<path d="M153.367 665.3L156.467 667.1L153.467 668.8C152.767 669.2 151.767 669.2 151.067 668.8L147.967 667L150.967 665.3C151.667 664.9 152.767 664.9 153.367 665.3Z" fill="#9A4A4D"/>
<path d="M163.465 662.7L152.465 656.3C152.365 656.2 152.265 656.2 152.065 656.3L141.065 662.7C140.965 662.8 140.865 662.9 140.865 663H141.665L152.265 656.9L162.865 663H163.665C163.565 662.8 163.565 662.7 163.465 662.7Z" fill="#37474F"/>
<path d="M148.166 667.2L150.866 668.9C151.566 669.3 152.566 669.3 153.266 668.9L158.466 665.9V665.8C158.466 664.6 158.466 663.5 158.466 662.3C158.466 661.7 158.466 661.1 158.366 660.6C158.366 660.5 158.366 660.3 158.366 660.2C158.366 660.1 158.366 659.9 158.366 659.8C158.466 659.6 158.566 659.4 158.666 659.3C158.766 659.2 158.866 659.1 158.966 659C159.466 658.5 160.066 658 160.566 657.5C160.766 657.3 160.866 657.2 160.966 657C160.966 656.9 160.966 656.8 160.966 656.6C160.966 655.4 160.866 654.3 160.766 653.1C160.766 653 160.766 652.8 160.666 652.7C160.566 652.5 160.366 652.5 160.166 652.4C160.166 652.4 160.066 652.3 159.966 652.4C159.966 652.4 159.866 652.4 159.866 652.5C159.766 652.6 159.766 652.8 159.766 653C159.766 654.1 159.666 655.1 159.666 656.2V656.3C159.666 656.4 159.566 656.4 159.566 656.4C159.066 656.7 158.666 657 158.066 657.2C157.466 657.5 156.766 657.7 156.266 657.2C156.066 657 156.366 657 156.466 656.9C156.666 656.8 156.866 656.7 156.966 656.5C156.966 656.4 156.966 656.3 156.966 656.1C156.966 655.3 156.666 654.3 155.966 654C155.366 653.8 154.766 654.2 154.466 654.8C153.866 654.1 152.566 654.3 151.966 654.9C151.666 655.2 151.366 655.7 151.166 656.1C151.066 656.4 150.966 656.7 150.766 657C150.666 657.1 150.666 657.3 150.566 657.4C150.466 657.5 150.366 657.7 150.366 657.8C150.266 658 150.066 658 149.966 658.1C149.766 658.2 149.666 658.4 149.766 658.5C149.866 658.8 149.766 658.9 149.566 659.1C149.266 659.4 149.066 659.6 148.766 659.9C148.566 660.1 148.466 660.2 148.366 660.5C148.266 660.9 148.466 661.2 148.666 661.5C148.866 661.9 149.066 662.2 149.266 662.6C149.366 662.7 149.366 662.9 149.466 663C149.466 663.1 149.466 663.3 149.366 663.5C149.266 663.8 149.166 664.2 149.066 664.5C148.766 665.2 148.466 665.9 148.166 666.6C148.166 667 148.166 667.1 148.166 667.2ZM154.866 656.7C154.866 656.8 154.966 656.8 154.966 656.9C154.966 657 154.966 657.1 154.966 657.2V657.3C154.966 657.3 154.966 657.3 154.866 657.3C154.766 657.3 154.266 657.3 154.266 657.3C154.366 657.2 154.366 657.2 154.466 657.1C154.566 657 154.566 656.9 154.566 656.8C154.566 656.7 154.666 656.6 154.666 656.5C154.666 656.4 154.766 656.4 154.766 656.5V656.6C154.866 656.7 154.866 656.7 154.866 656.7ZM153.466 663.2C153.466 663.1 153.466 662.9 153.466 662.8C153.466 662.7 153.466 662.7 153.466 662.6C153.466 662.5 153.566 662.5 153.566 662.5C153.666 662.4 153.866 662.2 153.866 662.3C153.966 662.4 153.866 662.7 153.866 662.8C153.866 663.1 153.766 663.5 153.766 663.8C153.766 663.9 153.666 664.1 153.566 664.1C153.466 664.1 153.466 663.9 153.466 663.8C153.566 663.6 153.466 663.4 153.466 663.2ZM149.766 661C149.966 660.8 150.066 660.7 150.266 660.5C150.266 660.5 150.266 660.5 150.366 660.5C150.366 660.7 150.366 661 150.266 661.2C150.266 661.3 150.166 661.8 150.066 661.7C149.966 661.6 149.966 661.4 149.866 661.3C149.866 661.3 149.866 661.2 149.766 661.2C149.766 661.2 149.766 661.1 149.766 661Z" fill="#263238"/>
<path d="M166.965 637.3C166.865 637.4 166.765 637.4 166.665 637.5C165.965 636.2 164.765 634.9 162.865 633.9C157.065 630.5 147.565 630.5 141.665 633.9C139.865 635 138.565 636.2 137.865 637.5C137.765 637.4 137.665 637.4 137.565 637.3C129.465 632.6 129.465 625 137.565 620.3C145.665 615.6 158.865 615.6 166.965 620.3C175.065 625 175.065 632.6 166.965 637.3Z" fill="#F38255"/>
<path opacity="0.2" d="M166.965 637.3C166.865 637.4 166.765 637.4 166.665 637.5C165.965 636.2 164.765 634.9 162.865 633.9C157.065 630.5 147.565 630.5 141.665 633.9C139.865 635 138.565 636.2 137.865 637.5C137.765 637.4 137.665 637.4 137.565 637.3C129.465 632.6 129.465 625 137.565 620.3C145.665 615.6 158.865 615.6 166.965 620.3C175.065 625 175.065 632.6 166.965 637.3Z" fill="black"/>
<path opacity="0.2" d="M152.865 616.801C147.365 616.701 141.765 617.901 137.565 620.301C129.465 625.001 129.465 632.601 137.565 637.301C137.665 637.401 137.765 637.401 137.865 637.501C138.565 636.201 139.765 634.901 141.665 633.901C144.765 632.101 148.865 631.301 152.865 631.401V616.801Z" fill="black"/>
<path d="M152.266 658.2C152.166 658.2 152.166 658.2 152.166 658.2L143.266 653C143.166 652.9 143.166 652.9 143.166 652.7C143.166 652.6 143.266 652.5 143.266 652.4L152.166 647.2C152.266 647.1 152.366 647.1 152.466 647.2L161.366 652.4C161.466 652.5 161.466 652.5 161.466 652.7C161.466 652.8 161.366 652.9 161.366 653L152.466 658.2C152.366 658.2 152.266 658.2 152.266 658.2ZM143.866 652.7L152.266 657.5L160.666 652.7L152.266 647.9L143.866 652.7Z" fill="#37474F"/>
<path d="M162.765 663L152.165 669.1L141.565 663H140.865C140.865 663.1 140.965 663.2 141.065 663.3L152.065 669.7C152.165 669.7 152.165 669.7 152.265 669.7C152.365 669.7 152.365 669.7 152.465 669.7L163.465 663.3C163.565 663.2 163.665 663.1 163.665 663H162.765Z" fill="#37474F"/>
<path d="M153.764 652.8C153.764 652.6 153.564 652.3 153.264 652.2C152.664 651.8 151.664 651.8 151.064 652.2C150.764 652.4 150.564 652.6 150.564 652.8C150.564 652.9 150.564 653.9 150.564 654.1C150.564 654.3 150.764 654.6 151.064 654.7C151.664 655.1 152.664 655.1 153.264 654.7C153.564 654.5 153.764 654.3 153.764 654.1C153.764 654 153.764 653 153.764 652.8Z" fill="#263238"/>
<path d="M156.665 655.6H156.565L147.665 650.4C147.565 650.3 147.465 650.1 147.565 650C147.665 649.9 147.865 649.8 147.965 649.9L156.865 655.1C156.965 655.2 157.065 655.4 156.965 655.5C156.865 655.6 156.765 655.6 156.665 655.6Z" fill="#37474F"/>
<path d="M147.765 655.6C147.665 655.6 147.565 655.5 147.465 655.5C147.365 655.4 147.465 655.2 147.565 655.1L156.465 649.9C156.565 649.8 156.765 649.9 156.865 650C156.965 650.1 156.865 650.3 156.765 650.4L147.865 655.6H147.765Z" fill="#37474F"/>
<path d="M153.764 651.6C153.764 651.4 153.564 651.1 153.264 651C152.664 650.6 151.664 650.6 151.064 651C150.764 651.2 150.564 651.4 150.564 651.6C150.564 651.7 150.564 652.7 150.564 652.9C150.564 653.1 150.764 653.4 151.064 653.5C151.664 653.9 152.664 653.9 153.264 653.5C153.564 653.3 153.764 653.1 153.764 652.9C153.764 652.7 153.764 651.7 153.764 651.6Z" fill="#263238"/>
<path d="M151.064 651C150.764 651.2 150.564 651.4 150.564 651.6C150.564 651.8 150.764 652.1 151.064 652.2C151.664 652.6 152.664 652.6 153.264 652.2C153.564 652 153.764 651.8 153.764 651.6C153.764 651.4 153.564 651.1 153.264 651C152.764 650.6 151.764 650.6 151.064 651Z" fill="#455A64"/>
<path d="M153.166 650.4C153.166 650.3 153.066 650.1 152.866 650C152.466 649.8 151.966 649.8 151.566 650C151.366 650.1 151.266 650.2 151.266 650.4C151.266 650.5 151.266 651.4 151.266 651.5C151.266 651.6 151.366 651.8 151.566 651.9C151.966 652.1 152.466 652.1 152.866 651.9C153.066 651.8 153.166 651.7 153.166 651.5C153.166 651.4 153.166 650.5 153.166 650.4Z" fill="#263238"/>
<path d="M151.566 650C151.366 650.1 151.266 650.2 151.266 650.4C151.266 650.5 151.366 650.7 151.566 650.8C151.966 651 152.466 651 152.866 650.8C153.066 650.7 153.166 650.6 153.166 650.4C153.166 650.3 153.066 650.1 152.866 650C152.466 649.8 151.966 649.8 151.566 650Z" fill="#455A64"/>
<path d="M152.266 526.4C167.666 526.4 187.466 528.4 203.666 549.1C202.066 543 199.966 537.9 192.166 529.7C192.166 529.6 179.066 520.1 152.266 526.4Z" fill="#F38255"/>
<path opacity="0.6" d="M152.266 526.4C167.666 526.4 187.466 528.4 203.666 549.1C202.066 543 199.966 537.9 192.166 529.7C192.166 529.6 179.066 520.1 152.266 526.4Z" fill="white"/>
<path d="M192.166 529.6C191.866 529.4 178.766 520.1 152.266 526.3C158.666 520.4 167.766 518.3 175.366 518.1C182.566 521.1 187.966 525.2 192.166 529.6Z" fill="#FAFAFA"/>
<path d="M152.266 526.4C158.666 520.5 167.766 518.4 175.366 518.2C170.666 516.3 165.266 514.9 158.966 514.4C155.166 518.2 152.266 523.3 152.266 526.4Z" fill="#F38255"/>
<path opacity="0.6" d="M152.266 526.4C158.666 520.5 167.766 518.4 175.366 518.2C170.666 516.3 165.266 514.9 158.966 514.4C155.166 518.2 152.266 523.3 152.266 526.4Z" fill="white"/>
<path d="M152.266 526.4C173.966 529.7 187.266 542.5 194.966 556.6C201.766 569.2 201.466 582.1 200.866 590.5C205.466 578.5 209.366 562.5 203.766 549.1C187.366 528.3 167.566 526.4 152.266 526.4Z" fill="#FAFAFA"/>
<path d="M152.265 526.4C136.865 526.4 117.065 528.4 100.865 549.1C102.465 543 104.565 537.9 112.365 529.7C112.265 529.6 125.365 520.1 152.265 526.4Z" fill="#F38255"/>
<path opacity="0.6" d="M152.265 526.4C136.865 526.4 117.065 528.4 100.865 549.1C102.465 543 104.565 537.9 112.365 529.7C112.265 529.6 125.365 520.1 152.265 526.4Z" fill="white"/>
<path d="M112.266 529.6C112.566 529.4 125.666 520.1 152.166 526.3C145.766 520.4 136.666 518.3 129.066 518.1C121.966 521.1 116.466 525.2 112.266 529.6Z" fill="#FAFAFA"/>
<path d="M152.266 526.4C145.866 520.5 136.766 518.4 129.166 518.2C133.866 516.3 139.266 514.9 145.566 514.4C149.266 518.2 152.266 523.3 152.266 526.4Z" fill="#F38255"/>
<path opacity="0.6" d="M152.266 526.4C145.866 520.5 136.766 518.4 129.166 518.2C133.866 516.3 139.266 514.9 145.566 514.4C149.266 518.2 152.266 523.3 152.266 526.4Z" fill="white"/>
<path d="M152.266 526.4C130.566 529.7 117.266 542.5 109.566 556.6C102.766 569.2 103.066 582.1 103.666 590.5C99.0661 578.5 95.1661 562.5 100.766 549.1C117.066 528.3 136.866 526.4 152.266 526.4Z" fill="#FAFAFA"/>
<path d="M103.666 590.4C102.966 582 102.766 569.1 109.566 556.5C117.166 542.4 130.566 529.6 152.266 526.3C133.166 531.2 120.766 555.5 119.766 580.5C119.066 597.9 122.366 613.8 128.666 625.8C120.266 617.9 108.266 607.2 103.666 590.4Z" fill="#F38255"/>
<path opacity="0.6" d="M103.666 590.4C102.966 582 102.766 569.1 109.566 556.5C117.166 542.4 130.566 529.6 152.266 526.3C133.166 531.2 120.766 555.5 119.766 580.5C119.066 597.9 122.366 613.8 128.666 625.8C120.266 617.9 108.266 607.2 103.666 590.4Z" fill="white"/>
<path d="M146.167 637.3C144.267 636.8 142.167 636 139.967 634.7C136.567 632.6 132.167 630.6 128.567 625.9C122.267 613.9 118.967 598 119.667 580.6C120.767 555.6 133.067 531.3 152.167 526.4C136.867 546.4 134.767 599.6 146.167 637.3Z" fill="#FAFAFA"/>
<path d="M200.766 590.4C201.466 582 201.666 569.1 194.866 556.5C187.266 542.4 173.866 529.6 152.166 526.3C171.266 531.2 183.666 555.5 184.666 580.5C185.366 597.9 182.066 613.8 175.766 625.8C184.166 617.9 196.166 607.2 200.766 590.4Z" fill="#F38255"/>
<path opacity="0.6" d="M200.766 590.4C201.466 582 201.666 569.1 194.866 556.5C187.266 542.4 173.866 529.6 152.166 526.3C171.266 531.2 183.666 555.5 184.666 580.5C185.366 597.9 182.066 613.8 175.766 625.8C184.166 617.9 196.166 607.2 200.766 590.4Z" fill="white"/>
<path d="M158.266 637.3C160.166 636.8 162.266 636 164.466 634.7C167.866 632.6 172.266 630.6 175.866 625.9C182.166 613.9 185.466 598 184.766 580.6C183.666 555.6 171.366 531.3 152.266 526.4C167.566 546.4 169.666 599.6 158.266 637.3Z" fill="#FAFAFA"/>
<path d="M158.966 514.3C155.266 518.2 152.266 523.3 152.266 526.3C152.266 523.3 149.266 518.2 145.566 514.3C147.666 514.1 149.866 514 152.266 514C154.566 514 156.766 514.1 158.966 514.3Z" fill="#FAFAFA"/>
<path d="M152.265 526.4C167.665 546.5 169.765 599.7 158.265 637.3C154.665 638.3 152.265 638 152.265 638C152.265 638 149.765 638.2 146.265 637.3C134.765 599.6 136.865 546.4 152.265 526.4Z" fill="#F38255"/>
<path opacity="0.6" d="M152.265 526.4C167.665 546.5 169.765 599.7 158.265 637.3C154.665 638.3 152.265 638 152.265 638C152.265 638 149.765 638.2 146.265 637.3C134.765 599.6 136.865 546.4 152.265 526.4Z" fill="white"/>
<path d="M152.267 532.2C157.955 532.2 162.567 529.603 162.567 526.4C162.567 523.196 157.955 520.6 152.267 520.6C146.578 520.6 141.967 523.196 141.967 526.4C141.967 529.603 146.578 532.2 152.267 532.2Z" fill="white"/>
<path opacity="0.2" d="M131.466 518.3C130.666 518.2 129.866 518.2 129.166 518.2C129.066 518.2 128.966 518.3 128.866 518.3C125.366 519.7 122.366 521.5 119.666 523.4C119.466 523.6 119.166 523.7 118.966 523.9C116.466 525.7 114.266 527.7 112.366 529.7C112.466 529.6 115.766 527.3 122.066 525.8C123.066 523.7 125.766 521.3 131.466 518.3ZM123.466 531.2C115.666 534.5 107.866 540 100.766 549.1C95.1661 562.4 99.0661 578.5 103.666 590.5C102.966 582.1 102.766 569.2 109.566 556.6C110.466 555 111.366 553.4 112.366 551.9C112.266 552.1 112.066 552.3 111.966 552.5C111.966 552.5 109.966 549.7 112.266 542.9C114.666 536.1 123.266 531.3 123.466 531.2ZM141.866 618.8C141.566 618.6 133.066 612 127.866 594.3C121.666 573.6 133.666 539.9 133.966 539C131.366 542.2 129.066 545.9 127.166 550C123.866 556.9 121.766 564.4 120.566 572C120.166 574.8 119.866 577.7 119.766 580.5C119.066 597.9 122.366 613.8 128.666 625.8C132.066 630.3 136.266 632.4 139.666 634.4C139.766 634.5 139.866 634.5 140.066 634.6C140.566 634.9 140.966 635.1 141.466 635.4C142.666 636 143.766 636.5 144.766 636.8C145.266 637 145.766 637.1 146.266 637.3C144.366 631.5 142.966 625.2 141.866 618.8ZM167.066 606.1C167.766 582.5 163.966 560.6 163.566 558.5C163.566 558.7 163.666 558.9 163.666 559.1C163.766 559.8 163.866 560.4 163.966 561.1C166.266 578.9 165.866 597 163.166 614.8C161.966 622.6 160.266 630.2 158.166 637.3C158.566 637.2 159.066 637 159.566 636.9C161.066 636.4 162.666 635.7 164.366 634.7C167.766 632.6 172.166 630.6 175.766 625.9C177.566 622.4 179.166 618.6 180.466 614.5C178.066 620.5 166.366 630.8 167.066 606.1Z" fill="#F38255"/>
<path opacity="0.2" d="M129.165 518.1C129.965 518.1 130.665 518.2 131.465 518.2C133.065 517.4 134.765 516.5 136.865 515.6C134.065 516.3 131.465 517.2 129.165 518.1ZM123.465 531.2C123.465 531.2 119.865 529.3 121.965 525.7C115.465 527.3 112.265 529.6 112.265 529.6C111.765 530.1 111.365 530.5 110.965 531C108.565 533.6 106.765 535.9 105.465 538C102.965 541.9 101.765 545.3 100.865 549C107.865 540 115.665 534.5 123.465 531.2ZM112.365 551.8C111.365 553.4 110.365 554.9 109.565 556.5C102.765 569.1 103.065 582 103.665 590.4C107.265 603.8 115.665 613.3 123.165 620.6C123.565 621 124.065 621.5 124.465 621.9L124.565 622C125.965 623.3 127.365 624.6 128.565 625.8C122.265 613.8 118.965 597.9 119.665 580.5C119.765 577.6 120.065 574.8 120.465 572C120.465 572.1 120.465 572.2 120.465 572.2C111.665 551.3 129.165 535.4 134.965 531.6C134.865 531.6 134.765 531.7 134.665 531.7C125.565 536.2 117.865 543.3 112.365 551.8ZM163.265 614.9C162.965 615.8 158.565 633.4 150.665 622.6C143.065 612.3 140.065 574.6 143.265 546.6C143.265 546.7 143.265 546.8 143.165 546.8V546.9C143.165 547 143.165 547.1 143.065 547.2C141.665 553 140.665 558.9 139.965 564.8C138.965 574.1 138.665 584.2 139.165 594.3C139.565 601.1 140.165 607.8 141.165 614.5C141.365 615.9 141.565 617.3 141.865 618.7C142.965 625.1 144.465 631.3 146.165 637.2C146.365 637.3 146.665 637.3 146.865 637.4C146.965 637.4 147.065 637.4 147.165 637.5C147.265 637.5 147.465 637.6 147.565 637.6C147.665 637.6 147.765 637.6 147.865 637.7C147.965 637.7 148.065 637.7 148.165 637.8C148.265 637.8 148.365 637.8 148.465 637.9C148.565 637.9 148.665 637.9 148.765 637.9C148.865 637.9 148.965 637.9 149.065 637.9C149.165 637.9 149.265 637.9 149.365 637.9C149.465 637.9 149.565 637.9 149.665 637.9C149.765 637.9 149.865 637.9 149.965 637.9C150.065 637.9 150.065 637.9 150.065 637.9C150.365 637.9 150.665 637.9 150.965 638C151.065 638 151.165 638 151.265 638C151.865 638 152.265 638 152.265 638C152.265 638 154.765 638.2 158.265 637.3C160.365 630.2 162.065 622.7 163.265 614.9C163.265 614.8 163.265 614.8 163.265 614.9ZM185.865 604C186.665 591.3 184.565 577.1 184.565 577C184.565 577.5 184.665 578 184.665 578.5C185.365 590.6 184.265 602.8 180.565 614.4C179.265 618.5 177.665 622.3 175.865 625.8L175.965 625.7C176.965 624.8 177.965 623.8 178.965 622.8C186.265 615.9 193.265 608.3 197.565 599.1C197.965 598.3 198.265 597.5 198.665 596.7C198.465 596.9 185.065 616.7 185.865 604Z" fill="#F38255"/>
<path d="M171.182 630.956L160.521 652.681L160.701 652.769L171.361 631.044L171.182 630.956Z" fill="#37474F"/>
<path d="M158.766 654.2L158.666 654.1L165.566 633.8L165.666 633.9L158.766 654.2Z" fill="#37474F"/>
<path d="M160.421 635.141L156.637 655.288L156.833 655.325L160.618 635.178L160.421 635.141Z" fill="#37474F"/>
<path d="M154.266 656.6H154.066L154.966 635.9H155.166L154.266 656.6Z" fill="#37474F"/>
<path d="M133.238 630.983L133.059 631.071L143.736 652.788L143.915 652.7L133.238 630.983Z" fill="#37474F"/>
<path d="M145.666 654.2L138.766 633.9L138.866 633.8L145.766 654.1L145.666 654.2Z" fill="#37474F"/>
<path d="M144.07 635.137L143.873 635.174L147.668 655.319L147.864 655.282L144.07 635.137Z" fill="#37474F"/>
<path d="M150.166 656.6L149.266 635.9H149.466L150.366 656.6H150.166Z" fill="#37474F"/>
<path d="M166.966 637.3C166.866 637.4 166.766 637.4 166.666 637.5C158.666 641.9 145.966 641.9 137.966 637.5C137.866 637.4 137.766 637.4 137.666 637.3C135.366 636 133.766 634.4 132.766 632.8L138.066 642.4L138.166 642.6C138.866 643.9 140.066 645 141.866 646C147.666 649.4 157.166 649.4 163.066 646C164.766 645 166.066 643.8 166.766 642.6L166.866 642.4L172.166 632.8C170.866 634.4 169.166 636 166.966 637.3Z" fill="#F38255"/>
<path opacity="0.6" d="M166.966 637.3C166.866 637.4 166.766 637.4 166.666 637.5C158.666 641.9 145.966 641.9 137.966 637.5C137.866 637.4 137.766 637.4 137.666 637.3C135.366 636 133.766 634.4 132.766 632.8L138.066 642.4L138.166 642.6C138.866 643.9 140.066 645 141.866 646C147.666 649.4 157.166 649.4 163.066 646C164.766 645 166.066 643.8 166.766 642.6L166.866 642.4L172.166 632.8C170.866 634.4 169.166 636 166.966 637.3Z" fill="white"/>
<path opacity="0.2" d="M145.766 645.3C141.966 642.9 141.266 640.5 144.966 640.1C142.366 639.5 139.966 638.7 137.866 637.5C137.766 637.4 137.666 637.4 137.566 637.3C135.266 636 133.666 634.4 132.666 632.8L137.966 642.4L138.066 642.6C138.766 643.9 139.966 645 141.766 646C146.166 648.5 152.466 649.2 157.866 647.9C152.666 648.2 148.266 646.9 145.766 645.3Z" fill="#BA68C8"/>
<path d="M175.567 626.1C174.367 628 172.467 629.8 169.867 631.3C169.467 631.5 169.067 631.8 168.667 632C159.267 636.7 145.267 636.7 135.867 632C135.467 631.8 135.067 631.6 134.667 631.3C132.067 629.8 130.167 628 128.967 626.1C128.267 625.5 127.567 624.8 126.967 624.1C127.867 627.1 130.367 629.9 134.267 632.2C136.067 633.2 138.067 634.1 140.267 634.8C144.067 636 148.267 636.6 152.367 636.6C156.567 636.6 160.767 636 164.467 634.8C166.667 634.1 168.667 633.3 170.467 632.2C174.267 630 176.767 627.2 177.767 624.1C176.967 624.8 176.267 625.4 175.567 626.1Z" fill="#37474F"/>
<path d="M162.866 663L160.766 652.8L161.466 652.7L163.566 662.8L162.866 663Z" fill="#37474F"/>
<path d="M141.565 663L140.865 662.8L142.965 652.7L143.665 652.8L141.565 663Z" fill="#37474F"/>
<path d="M152.565 657.8H151.865V669.3H152.565V657.8Z" fill="#37474F"/>
<defs>
<filter id="filter0_d_623_677" x="342.5" y="513.5" width="144.842" height="49.374" filterUnits="userSpaceOnUse" color-interpolation-filters="sRGB">
<feFlood flood-opacity="0" result="BackgroundImageFix"/>
<feColorMatrix in="SourceAlpha" type="matrix" values="0 0 0 0 0 0 0 0 0 0 0 0 0 0 0 0 0 0 127 0" result="hardAlpha"/>
<feOffset dy="4"/>
<feGaussianBlur stdDeviation="2"/>
<feComposite in2="hardAlpha" operator="out"/>
<feColorMatrix type="matrix" values="0 0 0 0 0 0 0 0 0 0 0 0 0 0 0 0 0 0 0.25 0"/>
<feBlend mode="normal" in2="BackgroundImageFix" result="effect1_dropShadow_623_677"/>
<feBlend mode="normal" in="SourceGraphic" in2="effect1_dropShadow_623_677" result="shape"/>
</filter>
</defs>
</svg>
