<?xml version="1.0" encoding="UTF-8"?>
<svg version="1.1" xmlns="http://www.w3.org/2000/svg" width="849" height="681">
<path d="M0 0 C3.803493 3.40138507 7.52080576 6.88760854 11.20214844 10.42041016 C12.09675781 11.27376953 12.99136719 12.12712891 13.91308594 13.00634766 C18.96264741 17.93161223 23.53915866 23.0793617 27.93261719 28.59619141 C29.4428919 30.47558662 30.98756564 32.32785912 32.56542969 34.15087891 C74.32986603 82.44308999 94.75067999 147.92475316 94.51464844 211.04541016 C94.51191422 212.5656076 94.51191422 212.5656076 94.50912476 214.11651611 C94.46376825 229.10189312 93.979704 243.65781169 91.20214844 258.42041016 C90.95271484 259.84160156 90.95271484 259.84160156 90.69824219 261.29150391 C81.55264436 312.84557757 58.15982475 361.51715543 22.47949219 399.95947266 C20.4431269 402.16000461 18.4695299 404.39769718 16.51464844 406.67041016 C11.18466336 412.78678648 5.4202606 418.21749998 -0.79785156 423.42041016 C-3.6941703 422.12024499 -5.64979462 420.78530593 -7.78613281 418.44384766 C-8.32415527 417.85933838 -8.86217773 417.2748291 -9.41650391 416.67260742 C-9.97547363 416.05313232 -10.53444336 415.43365723 -11.11035156 414.79541016 C-11.97974365 413.84589478 -11.97974365 413.84589478 -12.86669922 412.87719727 C-16.38666707 409.0208418 -19.84007125 405.11130019 -23.24707031 401.15478516 C-25.47599473 398.66198304 -27.8635879 396.34229356 -30.25097656 394.00244141 C-31.79785156 392.42041016 -31.79785156 392.42041016 -33.73535156 389.92041016 C-36.14589611 386.99853798 -38.8490068 384.69557889 -41.72363281 382.24072266 C-43.6678913 380.53446191 -45.48808843 378.7674453 -47.29785156 376.92041016 C-49.61373673 374.55964754 -51.99300983 372.34105742 -54.50097656 370.18603516 C-58.79011799 366.45668976 -62.92592749 362.58271257 -67.04785156 358.67041016 C-72.95898652 353.08324345 -78.90335202 347.54035585 -84.91113281 342.05712891 C-88.02886428 339.20940395 -91.13381548 336.34824417 -94.23535156 333.48291016 C-94.77506592 332.9844458 -95.31478027 332.48598145 -95.87084961 331.97241211 C-98.06194939 329.94852698 -100.25264291 327.92420236 -102.44335938 325.89990234 C-108.71064007 320.10927758 -114.98510727 314.32686837 -121.27856445 308.56469727 C-124.96012678 305.19239825 -128.63090558 301.80859202 -132.29785156 298.42041016 C-137.95670923 293.1922549 -143.63168006 287.9819691 -149.31396484 282.77929688 C-152.31056888 280.03512148 -155.3052414 277.28883826 -158.30029297 274.54296875 C-160.78714032 272.2631565 -163.27441952 269.98381958 -165.76269531 267.70556641 C-166.25286133 267.25656982 -166.74302734 266.80757324 -167.24804688 266.3449707 C-168.23790246 265.43846967 -169.22813572 264.53238086 -170.21875 263.62670898 C-172.88059294 261.19015902 -175.52875305 258.74034828 -178.16113281 256.27197266 C-190.52754031 243.61236059 -190.52754031 243.61236059 -206.71191406 238.85791016 C-218.04303817 240.92333025 -228.75795749 249.07046162 -238.27441406 255.22119141 C-245.1061112 259.55168627 -250.6156956 261.9957103 -258.79785156 260.42041016 C-262.00245409 258.60857719 -264.26501208 256.06433909 -266.79785156 253.42041016 C-268.37779206 251.94437189 -269.97865522 250.49313306 -271.58081055 249.04125977 C-276.52544734 244.55361343 -281.31792783 239.94648965 -286.00097656 235.18603516 C-287.72840939 233.48864464 -289.51209343 231.92182088 -291.36035156 230.35791016 C-295.55740296 226.75925025 -299.41049181 222.84582998 -303.29785156 218.92041016 C-307.72831678 214.44660991 -312.16313977 210.08607595 -316.97753906 206.02197266 C-319.99203712 203.36973188 -322.75664232 200.46904594 -325.57519531 197.61181641 C-328.22486596 194.99939948 -331.00957959 192.58738395 -333.83300781 190.16650391 C-336.53163517 187.76832015 -339.04099731 185.20429492 -341.54785156 182.60791016 C-343.49602471 180.71385293 -345.48499483 178.93090821 -347.53613281 177.15087891 C-351.79235266 173.4536262 -355.89615259 169.61304016 -359.98535156 165.73291016 C-365.61637283 160.41097566 -371.26532811 155.11182027 -376.97314453 149.87231445 C-379.88637858 147.19525167 -382.77947872 144.49914976 -385.65332031 141.77978516 C-386.31187012 141.15861816 -386.97041992 140.53745117 -387.64892578 139.89746094 C-388.91024079 138.70648065 -390.1686309 137.51239097 -391.42333984 136.31445312 C-400.8286422 127.0625343 -400.8286422 127.0625343 -412.86035156 122.85791016 C-423.91519979 123.19999829 -433.2381902 134.0361756 -441.11523438 140.95996094 C-444.44517667 143.85022716 -447.89060454 146.59971759 -451.31738281 149.37353516 C-454.37371533 151.89561112 -457.31880183 154.52797579 -460.23925781 157.20556641 C-461.79785156 158.42041016 -461.79785156 158.42041016 -463.79785156 158.42041016 C-460.55040287 136.76518058 -453.48973637 116.45206134 -444.79785156 96.42041016 C-444.42402344 95.55689941 -444.05019531 94.69338867 -443.66503906 93.80371094 C-433.3208513 70.2455675 -419.2030354 48.26700463 -402.17407227 28.98510742 C-401.19821658 27.87560607 -400.23149255 26.75804274 -399.27124023 25.63500977 C-387.6647645 12.1334606 -374.91084301 -0.91666926 -360.45605469 -11.37011719 C-358.71894748 -12.6371415 -357.01571209 -13.94193521 -355.31347656 -15.25537109 C-345.32067253 -22.88801122 -334.70250822 -29.33954384 -323.79785156 -35.57958984 C-322.7351001 -36.19447266 -322.7351001 -36.19447266 -321.65087891 -36.82177734 C-231.07023355 -88.79392139 -111.00546966 -79.97161677 0 0 Z " fill="#F2A20D" transform="translate(754.7978515625,70.57958984375)"/>
<path d="M0 0 C6.7012695 4.21151872 12.38245601 10.11057925 18.10498047 15.53759766 C20.58080944 17.87279658 23.09758535 20.16089603 25.61328125 22.453125 C30.81037549 27.20544628 35.9596424 32.00805652 41.10327148 36.81811523 C45.1131058 40.56638308 49.13737035 44.29818063 53.17578125 48.015625 C59.35258056 53.7051329 65.48078197 59.44564425 71.6015625 65.1953125 C74.40685498 67.83048617 77.21708811 70.46023821 80.03125 73.0859375 C86.12666194 78.77737323 92.19591033 84.46575632 98.04296875 90.4140625 C99.75615438 92.09566867 101.53388559 93.64928685 103.36328125 95.203125 C108.02373683 99.20043275 112.2754512 103.58932943 116.59082031 107.95019531 C120.25131929 111.63437407 123.97987161 115.15107473 127.94921875 118.50390625 C129.98223507 120.29278306 131.8511561 122.19885337 133.73828125 124.140625 C136.31020132 126.71254507 138.89198778 129.23532851 141.67578125 131.578125 C142.24167969 132.0628125 142.80757813 132.5475 143.390625 133.046875 C147.81719269 134.99132403 152.41550423 134.94026082 156.94311523 133.25976562 C159.19227081 132.12410135 161.33597083 130.88784592 163.48828125 129.578125 C164.2654248 129.12687256 165.04256836 128.67562012 165.84326172 128.21069336 C170.5733363 125.44539652 175.21921611 122.54722521 179.86328125 119.640625 C186.71202235 115.38701541 193.37300695 111.56988781 201.73828125 113.078125 C211.63145121 115.81035425 218.70504955 124.27590605 225.81347656 131.21386719 C228.48992357 133.80612357 231.23085258 136.32262546 233.98828125 138.828125 C234.9421875 139.69953125 235.89609375 140.5709375 236.87890625 141.46875 C237.8225 142.32984375 238.76609375 143.1909375 239.73828125 144.078125 C241.73926655 145.91038427 243.7387642 147.74426373 245.73828125 149.578125 C246.73825424 150.49482113 247.73825421 151.41148783 248.73828125 152.328125 C254.73828125 157.828125 260.73828125 163.328125 266.73828125 168.828125 C267.4806604 169.50862915 267.4806604 169.50862915 268.23803711 170.20288086 C269.23887793 171.12033185 270.2396917 172.03781236 271.24047852 172.95532227 C273.72739386 175.23523051 276.2147644 177.51463793 278.703125 179.79296875 C284.44160356 185.04820701 290.16745817 190.3167691 295.88256836 195.59741211 C299.49354707 198.93265315 303.11277796 202.25868233 306.73828125 205.578125 C312.54241005 210.89292168 318.32584865 216.22990515 324.10595703 221.57080078 C325.71023486 223.05222634 327.31582491 224.53221492 328.921875 226.01171875 C335.3518545 231.93684477 341.75795078 237.88664434 348.14306641 243.86010742 C351.69722525 247.18267269 355.26795538 250.48560896 358.85693359 253.77050781 C367.20905186 261.42515795 375.43017191 269.20098556 382.78125 277.83984375 C384.39913175 279.69023545 386.04613405 281.49224793 387.7265625 283.28515625 C388.26289307 283.85830566 388.79922363 284.43145508 389.35180664 285.02197266 C390.41904897 286.15911195 391.48969911 287.29306532 392.56420898 288.42333984 C395.40917074 291.46110983 397.73992699 294.38938203 399.73828125 298.078125 C379.75902432 295.12782022 360.61771174 289.41692216 342.4609375 280.51171875 C341.53531006 280.05958008 340.60968262 279.60744141 339.65600586 279.14160156 C337.84122955 278.24746053 336.03295993 277.33994565 334.23266602 276.41699219 C328.60914309 273.62704403 324.03592834 272.30612201 317.73828125 272.078125 C315.53205575 272.89108022 315.53205575 272.89108022 315.00805664 275.16357422 C314.78625732 276.06092285 314.56445801 276.95827148 314.3359375 277.8828125 C314.08521484 278.85863281 313.83449219 279.83445312 313.57617188 280.83984375 C313.06130487 282.90709315 312.54826879 284.97479947 312.03710938 287.04296875 C311.78509766 288.02136719 311.53308594 288.99976563 311.2734375 290.0078125 C311.05051025 290.90741699 310.82758301 291.80702148 310.59790039 292.73388672 C309.67088029 295.26193188 308.89582977 296.48211216 306.73828125 298.078125 C297.28818353 298.078125 290.16281416 291.72782251 282.98828125 286.265625 C270.07135045 275.46245929 270.07135045 275.46245929 254.59375 270.67578125 C251.92496164 271.25448694 250.43397375 272.58158389 248.91015625 274.8046875 C246.75685919 278.98208379 245.06733903 283.36403932 243.2890625 287.7109375 C241.14850895 292.35868854 238.46211012 296.71621056 233.73828125 299.078125 C219.65290861 300.6431664 209.33514027 289.9325634 198.92578125 281.77734375 C195.50435063 279.11962532 192.02704582 276.53841954 188.55078125 273.953125 C182.43915235 269.3885463 176.41722498 264.72280371 170.43359375 259.9921875 C166.22087592 256.66296702 161.97940635 253.37102926 157.73828125 250.078125 C152.2056811 245.78045411 146.6823254 241.47163181 141.17578125 237.140625 C140.60811035 236.69541504 140.04043945 236.25020508 139.45556641 235.79150391 C136.96301368 233.8356499 134.48034382 231.86977669 132.015625 229.87890625 C131.22285156 229.24339844 130.43007813 228.60789062 129.61328125 227.953125 C128.95070313 227.41429687 128.288125 226.87546875 127.60546875 226.3203125 C125.62758014 225.00447865 124.03472437 224.59314271 121.73828125 224.078125 C121.60005153 241.6925409 124.36260813 258.66513325 127.29907227 275.97949219 C127.45734497 276.92121277 127.61561768 277.86293335 127.77868652 278.83319092 C128.07892085 280.61123124 128.38456781 282.38836952 128.69665527 284.16436768 C130.00458479 291.87168578 130.57641291 298.08724233 126.73828125 305.078125 C123.26067011 307.32103807 120.43914612 307.325473 116.34765625 306.73046875 C99.25337225 302.45689775 85.96589286 287.7591588 74.04296875 275.6640625 C71.85289601 273.44259087 69.65211089 271.232191 67.44921875 269.0234375 C66.0267156 267.59176969 64.60481893 266.15949897 63.18359375 264.7265625 C62.53866974 264.07738861 61.89374573 263.42821472 61.22927856 262.7593689 C57.45827676 258.92976099 53.85118694 254.99784397 50.34347534 250.92544556 C45.26928029 245.08586212 40.87697011 241.20912889 33.73828125 238.078125 C27.30278895 249.87652755 31.11652404 266.81295218 31.73828125 279.828125 C31.83488996 281.89321727 31.93124623 283.95832137 32.02734375 286.0234375 C32.26141164 291.04180779 32.49889874 296.06000553 32.73828125 301.078125 C27.24504021 298.10636368 21.9300108 295.00926872 16.76953125 291.4921875 C15.46499058 290.61338876 14.16029672 289.73481741 12.85546875 288.85644531 C12.18290039 288.40209106 11.51033203 287.94773682 10.81738281 287.47961426 C5.05966668 283.59842949 -0.73149885 279.76710897 -6.52294922 275.93652344 C-8.01711304 274.94649733 -9.50962654 273.95397607 -11.00048828 272.95898438 C-36.02959955 255.39378477 -36.02959955 255.39378477 -65.26171875 251.078125 C-78.39847815 254.00317419 -87.78800755 261.5204804 -97.62841797 270.22143555 C-113.96827358 284.56725369 -113.96827358 284.56725369 -123.26171875 284.078125 C-125.88671875 282.640625 -125.88671875 282.640625 -128.26171875 281.078125 C-134.57862003 279.98764904 -139.18505097 283.419459 -144.44921875 286.453125 C-146.40842775 287.54763864 -148.36807183 288.6413738 -150.328125 289.734375 C-152.30617736 290.84862505 -154.28404477 291.9632035 -156.26171875 293.078125 C-159.79063024 295.0607283 -163.33221611 297.01683904 -166.88671875 298.953125 C-167.67328857 299.39962402 -168.4598584 299.84612305 -169.27026367 300.30615234 C-170.00220947 300.7027002 -170.73415527 301.09924805 -171.48828125 301.5078125 C-172.44081787 302.03737549 -172.44081787 302.03737549 -173.41259766 302.57763672 C-175.26171875 303.078125 -175.26171875 303.078125 -177.49755859 302.17626953 C-178.07973145 301.81388184 -178.6619043 301.45149414 -179.26171875 301.078125 C-177.63909216 297.1022154 -174.86921301 294.32058871 -171.94921875 291.265625 C-162.66102439 281.36610575 -153.86259758 271.07800739 -145.26171875 260.578125 C-128.09797555 239.62699853 -128.09797555 239.62699853 -119.0078125 230.8203125 C-117.22240631 229.03890051 -115.58617967 227.18375803 -113.94921875 225.265625 C-107.61566308 217.91985723 -100.64095618 211.02046219 -93.21875 204.77734375 C-91.7941502 203.54041578 -90.42240284 202.24182279 -89.0859375 200.91015625 C-84.84451723 196.77129191 -81.76307119 194.05205613 -75.67016602 193.99658203 C-73.2490266 194.07855472 -70.88593219 194.29916657 -68.48046875 194.58203125 C-67.68576172 194.67427979 -66.89105469 194.76652832 -66.07226562 194.86157227 C-65.47478516 194.93303467 -64.87730469 195.00449707 -64.26171875 195.078125 C-64.40609375 193.985 -64.55046875 192.891875 -64.69921875 191.765625 C-69.34823402 154.16062401 -60.22503133 129.59053456 -42.26171875 97.078125 C-29.92130814 78.43385205 -29.92130814 78.43385205 -23.26171875 58.078125 C-25.38096137 57.84333926 -25.38096137 57.84333926 -26.77734375 59.58203125 C-27.3496875 60.26136719 -27.92203125 60.94070313 -28.51171875 61.640625 C-32.19664476 66.00935172 -32.19664476 66.00935172 -33.7734375 67.67578125 C-37.61046939 71.78613596 -40.17044386 76.34469491 -42.88085938 81.25366211 C-57.15297475 106.66507052 -78.26121886 130.2114063 -101.26171875 148.078125 C-101.8870752 148.56925781 -102.51243164 149.06039062 -103.15673828 149.56640625 C-130.26298753 170.83229686 -159.87767223 187.59075484 -191.13671875 201.953125 C-191.83882477 202.27827087 -192.54093079 202.60341675 -193.26431274 202.93841553 C-218.09020703 214.40165992 -218.09020703 214.40165992 -229.80859375 213.98828125 C-235.89711127 213.77804239 -240.04809735 214.37193519 -245.484375 217.203125 C-247.26171875 218.078125 -247.26171875 218.078125 -249.26171875 218.078125 C-248.5970621 213.63110337 -246.96151589 209.76674925 -245.13671875 205.6953125 C-244.82976074 204.99922882 -244.52280273 204.30314514 -244.20654297 203.58596802 C-243.2296479 201.37289965 -242.24599054 199.16292111 -241.26171875 196.953125 C-240.27873527 194.73564124 -239.29717427 192.51753893 -238.31689453 190.29885864 C-237.70774908 188.92130659 -237.09681343 187.54454444 -236.48388672 186.16867065 C-234.09764202 180.79033677 -233.1501904 176.98912742 -233.26171875 171.078125 C-240.08656531 170.27467084 -243.57686204 172.72697205 -249.01171875 176.640625 C-250.59705918 177.74174555 -252.18299596 178.842008 -253.76953125 179.94140625 C-254.53426758 180.47846191 -255.29900391 181.01551758 -256.08691406 181.56884766 C-258.9723316 183.57127819 -261.91495424 185.4562993 -264.88671875 187.328125 C-266.17449219 188.14023437 -266.17449219 188.14023437 -267.48828125 188.96875 C-268.07351563 189.33484375 -268.65875 189.7009375 -269.26171875 190.078125 C-268.6212452 186.23834816 -267.48994654 182.92215786 -265.9765625 179.33984375 C-265.52861328 178.27314453 -265.08066406 177.20644531 -264.61914062 176.10742188 C-264.15056641 175.00462891 -263.68199219 173.90183594 -263.19921875 172.765625 C-262.72677734 171.64349609 -262.25433594 170.52136719 -261.76757812 169.36523438 C-260.60310552 166.60108223 -259.43435603 163.838821 -258.26171875 161.078125 C-261.17039166 159.74275093 -261.17039166 159.74275093 -263.56396484 161.04345703 C-264.46195801 161.55247559 -265.35995117 162.06149414 -266.28515625 162.5859375 C-267.29545898 163.1538501 -268.30576172 163.7217627 -269.34667969 164.30688477 C-270.43239258 164.93264404 -271.51810547 165.55840332 -272.63671875 166.203125 C-273.75852539 166.84113037 -274.88033203 167.47913574 -276.03613281 168.13647461 C-285.72863448 173.68669993 -295.24263318 179.50772268 -304.69238281 185.46044922 C-316.02636238 192.59641925 -327.40655356 199.65878764 -338.94921875 206.453125 C-339.75762207 206.93604004 -340.56602539 207.41895508 -341.39892578 207.91650391 C-342.14126465 208.34882324 -342.88360352 208.78114258 -343.6484375 209.2265625 C-344.30030029 209.60989746 -344.95216309 209.99323242 -345.6237793 210.38818359 C-346.16429932 210.61586426 -346.70481934 210.84354492 -347.26171875 211.078125 C-347.92171875 210.748125 -348.58171875 210.418125 -349.26171875 210.078125 C-343.40171106 204.70115482 -337.4277901 199.53032681 -331.24609375 194.52734375 C-327.87410512 191.760018 -324.56506429 188.9266556 -321.26171875 186.078125 C-317.13716264 182.52345286 -312.98963563 179.0101987 -308.76171875 175.578125 C-303.36095703 171.19099598 -298.08704175 166.66589088 -292.8125 162.12890625 C-285.55140872 155.88385179 -278.25618446 149.6818135 -270.82421875 143.640625 C-264.19483456 138.24689526 -257.73206627 132.66057082 -251.26171875 127.078125 C-246.80138117 128.49732332 -243.93322697 130.94429143 -240.63671875 134.140625 C-235.92327284 138.59152402 -231.06150157 142.74395155 -226.00390625 146.8046875 C-222.08254141 150.05573357 -218.38048872 153.52158006 -214.671875 157.01171875 C-210.76513619 160.38503323 -210.76513619 160.38503323 -205.82421875 160.94140625 C-202.6835056 159.88333063 -200.79240097 158.40667474 -198.26171875 156.265625 C-197.30265625 155.45480469 -196.34359375 154.64398438 -195.35546875 153.80859375 C-191.52670416 150.46332085 -187.81105134 146.99651463 -184.09960938 143.5222168 C-179.91046201 139.61874945 -175.54075275 136.00548949 -171.07421875 132.421875 C-167.8632207 129.74604329 -164.81142738 126.93454224 -161.76171875 124.078125 C-157.02305411 119.63979826 -152.14052549 115.4867025 -147.07421875 111.421875 C-143.86321941 108.74604222 -140.81144239 105.93452793 -137.76171875 103.078125 C-133.00082881 98.61938056 -128.09704055 94.4401467 -123.0078125 90.35546875 C-119.99852823 87.85986031 -117.12233221 85.24047357 -114.26171875 82.578125 C-109.67414436 78.30891721 -104.92728871 74.32053761 -100.04296875 70.390625 C-97.02152391 67.87841244 -94.13733492 65.25408412 -91.26171875 62.578125 C-86.62926214 58.26813395 -81.84049359 54.22751104 -76.91015625 50.2578125 C-74.28896756 48.10055101 -71.77017594 45.865015 -69.26171875 43.578125 C-65.04157931 39.73620561 -60.68144691 36.11697279 -56.24609375 32.52734375 C-52.87409238 29.76000755 -49.56538486 26.92629854 -46.26171875 24.078125 C-12.39392763 -5.05175634 -12.39392763 -5.05175634 0 0 Z " fill="#132FA9" transform="translate(349.26171875,204.921875)"/>
<path d="M0 0 C4.27460501 2.24270373 8.1107805 5.14946528 12 8 C13.58748047 9.15435547 13.58748047 9.15435547 15.20703125 10.33203125 C29.98512511 21.29079045 44.12260545 33.720108 52.5625 50.3125 C52.89741455 50.97024414 53.2323291 51.62798828 53.57739258 52.30566406 C55.59235103 56.50867095 56.6637535 60.29254901 57 65 C56.0625 67.4375 56.0625 67.4375 55 69 C52.7734375 69.30078125 52.7734375 69.30078125 50 69 C47.7890625 66.91796875 47.7890625 66.91796875 45.625 64.1875 C41.27762498 59.13224648 38.14777551 56.46761159 31.33203125 55.69921875 C26.7843635 55.48441663 23.717708 55.66071985 19.5625 57.625 C14.84375639 61.99846968 12.28851436 66.21102784 11.625 72.625 C11.63842411 76.28307081 12.61678849 78.45041319 14.5 81.5625 C16.91448398 85.5705434 17.91590375 88.23730052 17 93 C14.9375 95.5 14.9375 95.5 12 98 C10.95236734 99.07756502 9.9111646 100.16140298 8.875 101.25 C6.06336353 104.06767002 3.10814842 106.57690356 0 109.0625 C-4.70573041 112.84389051 -9.11667877 116.85072887 -13.5 121 C-18.67522426 125.89423136 -23.92250511 130.53578298 -29.5078125 134.9609375 C-32.04139463 137.03386833 -34.38085602 139.24253284 -36.75 141.5 C-39.41735092 143.85048476 -41.15763532 145.06474308 -44.5 146.4375 C-49.15721218 145.85534848 -51.35740087 143.71112058 -54.87109375 140.7265625 C-59.45979377 137.00508469 -64.24093522 136.40423468 -70 137 C-75.27313122 138.8302613 -78.93800943 141.22329471 -82 146 C-84.56350051 153.69050153 -82.7957736 160.20284472 -79.90625 167.51953125 C-78.79546476 170.55982704 -78.3765654 172.80489768 -79 176 C-80.625 178.375 -80.625 178.375 -83 180 C-86.59795281 180.6124175 -88.32050269 180.41815219 -91.4375 178.5 C-94.08954641 175.91263765 -96.50846633 173.22153286 -98.9140625 170.40625 C-101.38771067 167.55275323 -103.93937823 164.77509229 -106.5 162 C-110.10057292 158.09059893 -113.64418543 154.1413245 -117.125 150.125 C-119.54550706 147.38175867 -122.02233594 144.69146418 -124.5 142 C-133.56632027 132.13158211 -133.56632027 132.13158211 -137 128 C-137.44472656 127.46890625 -137.88945312 126.9378125 -138.34765625 126.390625 C-140.20620664 123.94615873 -140.9831978 122.19322526 -141.25 119.125 C-138.19385686 111.48464216 -130.30363671 106.56399288 -124.06640625 101.55859375 C-120.53386264 98.61105737 -117.16874967 95.51997335 -113.8125 92.375 C-113.20841309 91.80894043 -112.60432617 91.24288086 -111.98193359 90.65966797 C-111.39621582 90.11068848 -110.81049805 89.56170898 -110.20703125 88.99609375 C-105.5360668 84.61883286 -100.70252459 80.4485711 -95.828125 76.30078125 C-94.63513685 75.28418244 -93.44243795 74.26724412 -92.25 73.25 C-91.64631592 72.73518066 -91.04263184 72.22036133 -90.4206543 71.68994141 C-86.47514717 68.3089801 -82.61880634 64.84897957 -78.8125 61.3125 C-75.18716792 57.94416553 -71.48767607 54.7207798 -67.625 51.625 C-61.89477513 47.01428361 -56.56914922 42.02243362 -51.20703125 36.99609375 C-46.5360668 32.61883286 -41.70252459 28.4485711 -36.828125 24.30078125 C-35.63518518 23.28412573 -34.4424844 22.26718967 -33.25 21.25 C-32.64921631 20.73808105 -32.04843262 20.22616211 -31.42944336 19.69873047 C-27.38972016 16.23920041 -23.45664855 12.68438685 -19.5625 9.0625 C-7.76233103 -1.75171321 -7.76233103 -1.75171321 0 0 Z M0.09887695 12.56054688 C-0.59761963 13.27275391 -1.29411621 13.98496094 -2.01171875 14.71875 C-3.14770508 15.86923828 -3.14770508 15.86923828 -4.30664062 17.04296875 C-5.09232422 17.85378906 -5.87800781 18.66460937 -6.6875 19.5 C-7.48478516 20.31082031 -8.28207031 21.12164062 -9.10351562 21.95703125 C-11.0758748 23.96482203 -13.04091492 25.9792687 -15 28 C-12.91705452 31.76678112 -10.61077657 34.62560969 -7.55078125 37.64453125 C-6.70322266 38.48564453 -5.85566406 39.32675781 -4.98242188 40.19335938 C-4.10134766 41.05767578 -3.22027344 41.92199219 -2.3125 42.8125 C-1.41982422 43.69615234 -0.52714844 44.57980469 0.39257812 45.49023438 C2.59059929 47.66474729 4.7931593 49.83444427 7 52 C11.43548715 48.24771566 15.79817496 44.45092799 20 40.4375 C20.50144531 39.98181641 21.00289062 39.52613281 21.51953125 39.05664062 C23.14228303 37.55201631 23.14228303 37.55201631 25 35 C24.7891663 30.51725204 22.95388811 28.45034463 19.8515625 25.35546875 C19.01109375 24.51435547 18.170625 23.67324219 17.3046875 22.80664062 C16.42039063 21.94232422 15.53609375 21.07800781 14.625 20.1875 C13.7484375 19.30384766 12.871875 18.42019531 11.96875 17.50976562 C6.77075787 11.22743887 6.77075787 11.22743887 0.09887695 12.56054688 Z M-37.65625 36.01953125 C-38.36007813 36.65971191 -39.06390625 37.29989258 -39.7890625 37.95947266 C-40.51867187 38.63284668 -41.24828125 39.3062207 -42 40 C-43.42696924 41.2748673 -44.85405174 42.54960785 -46.28125 43.82421875 C-47.68879754 45.11056081 -49.09504657 46.39832514 -50.5 47.6875 C-51.22703125 48.33783203 -51.9540625 48.98816406 -52.703125 49.65820312 C-53.73179687 50.60663086 -53.73179687 50.60663086 -54.78125 51.57421875 C-55.40064453 52.13713623 -56.02003906 52.70005371 -56.65820312 53.2800293 C-58.41006295 55.16206087 -58.41006295 55.16206087 -58 59 C-56.60041088 61.07501721 -56.60041088 61.07501721 -54.640625 63.0390625 C-53.93679687 63.78414062 -53.23296875 64.52921875 -52.5078125 65.296875 C-51.39019531 66.44929688 -51.39019531 66.44929688 -50.25 67.625 C-49.52039063 68.40101563 -48.79078125 69.17703125 -48.0390625 69.9765625 C-43.56546801 74.72286539 -43.56546801 74.72286539 -38 78 C-37.29875 77.28714844 -36.5975 76.57429688 -35.875 75.83984375 C-31.05519222 70.9663215 -26.26179287 66.17369125 -20.94921875 61.828125 C-18.04647114 59.1057084 -15.54786215 56.05217583 -13 53 C-13.4031543 52.57178955 -13.80630859 52.1435791 -14.22167969 51.70239258 C-16.06636913 49.74088693 -17.90820119 47.77671996 -19.75 45.8125 C-20.38421875 45.13896484 -21.0184375 44.46542969 -21.671875 43.77148438 C-24.34290087 40.91960779 -26.90210938 38.12911436 -29.265625 35.01171875 C-29.83796875 34.34785156 -30.4103125 33.68398437 -31 33 C-34.62505897 33 -35.06421286 33.63566461 -37.65625 36.01953125 Z M-71.79589844 65.15234375 C-72.3943457 65.74144531 -72.99279297 66.33054687 -73.609375 66.9375 C-74.61871094 67.91009766 -74.61871094 67.91009766 -75.6484375 68.90234375 C-76.34195313 69.59457031 -77.03546875 70.28679687 -77.75 71 C-79.11849064 72.33466863 -80.48828114 73.66800577 -81.859375 75 C-82.53419922 75.66 -83.20902344 76.32 -83.90429688 77 C-87.16899799 80.11561411 -90.57264502 83.06554222 -94 86 C-93.18132573 89.91738985 -91.69399358 91.75133788 -88.9375 94.6875 C-88.133125 95.55503906 -87.32875 96.42257812 -86.5 97.31640625 C-85.675 98.20199219 -84.85 99.08757812 -84 100 C-82.47423901 101.70393374 -80.95300505 103.41193805 -79.4375 105.125 C-78.77621094 105.87007812 -78.11492187 106.61515625 -77.43359375 107.3828125 C-76.96050781 107.91648437 -76.48742187 108.45015625 -76 109 C-73.09145878 107.67761129 -70.95217259 106.22598637 -68.64453125 104.0234375 C-68.02586182 103.43836426 -67.40719238 102.85329102 -66.76977539 102.25048828 C-65.80092407 101.32212158 -65.80092407 101.32212158 -64.8125 100.375 C-63.47472841 99.10856106 -62.13618882 97.84293286 -60.796875 96.578125 C-60.14912109 95.96517578 -59.50136719 95.35222656 -58.83398438 94.72070312 C-55.29438166 91.39973402 -51.65686447 88.19108499 -48 85 C-51.94419721 80.28887556 -56.0112407 75.6882719 -60.125 71.125 C-60.6396582 70.54145752 -61.15431641 69.95791504 -61.68457031 69.35668945 C-66.02364041 64.23959532 -66.02364041 64.23959532 -71.79589844 65.15234375 Z M-107.859375 98.50390625 C-108.48328125 99.18324219 -109.1071875 99.86257813 -109.75 100.5625 C-114.22501966 105.26998821 -118.96376753 109.55577425 -124.0234375 113.62890625 C-124.97089844 114.40041016 -124.97089844 114.40041016 -125.9375 115.1875 C-126.50339844 115.63480469 -127.06929687 116.08210938 -127.65234375 116.54296875 C-129.3455889 118.37363669 -129.85112567 119.50755563 -130 122 C-128.82803827 123.74375784 -128.82803827 123.74375784 -127 125.25 C-124.26805073 127.78564154 -121.74134413 130.35823905 -119.3125 133.1875 C-118.735 133.85007812 -118.1575 134.51265625 -117.5625 135.1953125 C-116.30656158 136.64592137 -115.05827995 138.10315778 -113.8125 139.5625 C-112.14246339 141.22808226 -112.14246339 141.22808226 -110.16015625 140.82421875 C-107.38735041 139.76624039 -105.79436186 138.27868652 -103.625 136.25 C-102.76390625 135.45207031 -101.9028125 134.65414062 -101.015625 133.83203125 C-100.54189453 133.38682129 -100.06816406 132.94161133 -99.58007812 132.48291016 C-97.80568685 130.81763627 -96.02068925 129.16419462 -94.234375 127.51171875 C-90.81642729 124.34806979 -87.4065848 121.17587949 -84 118 C-88.10108282 112.14170558 -92.68020888 107.16773779 -97.828125 102.19921875 C-100 100 -100 100 -102 97 C-105.88023346 96.58075383 -105.88023346 96.58075383 -107.859375 98.50390625 Z " fill="#FDB60E" transform="translate(228,168)"/>
<path d="M0 0 C0.60070312 0.46277344 1.20140625 0.92554688 1.8203125 1.40234375 C4.55420245 3.90143454 4.55420245 3.90143454 6.7578125 3.44921875 C9.56265225 2.4274557 12.3126165 1.29529245 15.0703125 0.15234375 C22.680856 -2.78789982 30.05486942 -4.65151453 38.06640625 -2.19140625 C44.45173702 0.6760188 47.65401654 5.14782768 50.21875 11.50390625 C51.66794689 15.78916588 52.06779639 19.43052834 52.05883789 23.98144531 C52.05872459 25.90298431 52.05872459 25.90298431 52.05860901 27.86334229 C52.05350276 29.2565515 52.04828677 30.64976032 52.04296875 32.04296875 C52.04110282 33.47214712 52.03967974 34.90132613 52.03868103 36.33050537 C52.03486965 40.08534523 52.02505117 43.84014618 52.01397705 47.5949707 C52.00373325 51.42919387 51.99917705 55.26342334 51.99414062 59.09765625 C51.98342763 66.61590518 51.96584203 74.13411405 51.9453125 81.65234375 C43.3653125 81.65234375 34.7853125 81.65234375 25.9453125 81.65234375 C25.88472656 79.05746094 25.82414062 76.46257812 25.76171875 73.7890625 C25.69945958 71.20384114 25.63626963 68.61864403 25.57299805 66.03344727 C25.53036479 64.27175164 25.48866002 62.51003324 25.44799805 60.74829102 C25.16139769 48.36786316 24.66271266 36.01539316 23.9453125 23.65234375 C22.6253125 23.65234375 21.3053125 23.65234375 19.9453125 23.65234375 C18.64867328 26.24562218 18.82527681 28.11642443 18.83178711 31.02001953 C18.83186264 32.14103058 18.83193817 33.26204163 18.83201599 34.41702271 C18.83717728 35.63163177 18.84233856 36.84624084 18.84765625 38.09765625 C18.8490712 39.33780487 18.85048615 40.57795349 18.85194397 41.85568237 C18.85660154 45.15352508 18.86558811 48.45131921 18.87664795 51.74914551 C18.88687519 55.11400751 18.89149917 58.47887682 18.89648438 61.84375 C18.90668033 68.44665345 18.92625343 75.04943605 18.9453125 81.65234375 C10.3653125 81.65234375 1.7853125 81.65234375 -7.0546875 81.65234375 C-7.3846875 62.18234375 -7.7146875 42.71234375 -8.0546875 22.65234375 C-9.3746875 22.32234375 -10.6946875 21.99234375 -12.0546875 21.65234375 C-13.79769723 23.39535348 -13.22474836 25.80929564 -13.26000977 28.18188477 C-13.27995499 29.3630336 -13.29990021 30.54418243 -13.32044983 31.76112366 C-13.33716232 33.04651535 -13.35387482 34.33190704 -13.37109375 35.65625 C-13.39187485 36.9644017 -13.41265594 38.27255341 -13.43406677 39.62034607 C-13.4893505 43.10389822 -13.53873181 46.58751035 -13.58691406 50.07116699 C-13.63708324 53.62367105 -13.69279317 57.17608765 -13.74804688 60.72851562 C-13.85570544 67.70305086 -13.95662138 74.67766711 -14.0546875 81.65234375 C-22.3046875 81.65234375 -30.5546875 81.65234375 -39.0546875 81.65234375 C-39.1225015 72.48145597 -39.17752557 63.31073511 -39.21012402 54.13965321 C-39.22577072 49.88101183 -39.24699068 45.62255109 -39.28100586 41.36401367 C-39.31363502 37.25320857 -39.33154801 33.14257707 -39.33931923 29.03165245 C-39.34485637 27.46437536 -39.35566915 25.89710762 -39.37187767 24.32990456 C-39.39369978 22.13224482 -39.39665251 19.93529972 -39.39526367 17.73754883 C-39.40192551 16.48734451 -39.40858734 15.2371402 -39.41545105 13.9490509 C-38.72661439 7.65436636 -34.94346333 4.14445036 -30.30078125 0.234375 C-21.32019432 -6.09108188 -9.18654937 -6.02539835 0 0 Z " fill="#F5A318" transform="translate(278.0546875,590.34765625)"/>
<path d="M0 0 C8.50207328 6.62499217 15.20863476 15.7203325 17.25 26.4375 C18.63712216 40.13533134 17.1722023 51.88794104 9 63.30859375 C2.21096301 71.56757848 -6.23728155 77.13273667 -16.75 79.4375 C-32.852305 80.41974061 -45.23389746 78.51099981 -57.75 67.4375 C-66.63339463 58.2341526 -70.01783181 46.73892755 -69.99658203 34.23950195 C-69.78947326 22.54353036 -65.02417117 12.88981764 -57.25 4.25 C-41.58328733 -10.65913469 -17.60990859 -11.76409531 0 0 Z M-40.625 23.25 C-44.37618075 27.96038679 -46.00871914 31.75078406 -45.6875 37.8125 C-44.92598064 42.83852781 -43.27627125 46.73411011 -39.75 50.4375 C-34.01492367 54.49738221 -28.71928402 56.44917026 -21.75 55.4375 C-15.07761706 53.40292869 -11.25921871 49.35095853 -7.75 43.4375 C-5.94071656 38.00964968 -5.93948705 32.56348516 -8.1875 27.25 C-11.24575396 21.86575007 -16.17614269 18.51571458 -22.0546875 16.7421875 C-29.7450125 15.49151181 -35.36626046 17.57838422 -40.625 23.25 Z " fill="#F5A418" transform="translate(213.75,592.5625)"/>
<path d="M0 0 C9.24 0 18.48 0 28 0 C28.01417969 4.06828125 28.02835938 8.1365625 28.04296875 12.328125 C28.06821855 15.57488416 28.09844638 18.82151215 28.13204193 22.06819153 C28.16612518 25.49395626 28.19146242 28.91927184 28.19555664 32.34521484 C28.20065919 36.27742401 28.24576323 40.20868667 28.29296875 44.140625 C28.2890361 45.36678528 28.28510345 46.59294556 28.28105164 47.85626221 C28.30069473 48.99714294 28.32033783 50.13802368 28.34057617 51.31347656 C28.34723801 52.31719299 28.35389984 53.32090942 28.36076355 54.3550415 C28.81243031 57.20725075 28.81243031 57.20725075 31.29121399 59.35540771 C34.04170362 61.34598115 34.04170362 61.34598115 38 61 C38 68.26 38 75.52 38 83 C29.7392427 86.54032456 24.28375883 87.45194659 15.8125 84.375 C8.66941368 81.19032729 3.92039265 76.77214515 0 70 C-0.48101807 66.6210022 -0.48101807 66.6210022 -0.45410156 62.89306641 C-0.45468567 62.20944031 -0.45526978 61.52581421 -0.45587158 60.82147217 C-0.45310371 58.58097025 -0.42207681 56.34182949 -0.390625 54.1015625 C-0.38315791 52.54072801 -0.37746719 50.97988411 -0.37347412 49.41903687 C-0.35825441 45.32531522 -0.31900507 41.23216778 -0.2746582 37.13867188 C-0.23362584 32.95580817 -0.21544617 28.77285102 -0.1953125 24.58984375 C-0.15250633 16.39293723 -0.08218734 8.19660636 0 0 Z " fill="#F3A116" transform="translate(101,586)"/>
<path d="M0 0 C0.9605127 0.01208496 1.92102539 0.02416992 2.91064453 0.03662109 C12.9814607 0.31660166 22.48801158 2.0281791 30.46875 8.65625 C38.04895483 16.78774246 39.83279984 25.00937847 39.61328125 35.83984375 C39.09265004 40.31536155 37.9160593 42.36440066 34.6953125 45.3984375 C30.81219664 48.23532525 26.57443459 47.86717199 21.9375 48.0625 C20.47751587 48.12618774 20.47751587 48.12618774 18.98803711 48.19116211 C2.73320704 48.8024864 -13.54947694 48.58263085 -29.8125 48.5 C-29.5134375 49.76585937 -29.214375 51.03171875 -28.90625 52.3359375 C-28.73802734 53.0479834 -28.56980469 53.7600293 -28.39648438 54.49365234 C-26.62906607 60.56582779 -21.53448757 63.17064079 -16.4453125 66.265625 C-10.66356937 68.97635323 -4.30600236 68.69842435 1.9609375 68.81640625 C3.3465538 68.8475779 3.3465538 68.8475779 4.76016235 68.87937927 C7.69420344 68.94446119 10.62832962 69.00356643 13.5625 69.0625 C15.55860235 69.1057246 17.55469627 69.14934012 19.55078125 69.19335938 C24.42960156 69.3000999 29.30850699 69.40148248 34.1875 69.5 C34.1875 71.15 34.1875 72.8 34.1875 74.5 C27.80126677 74.57647595 21.41515298 74.62877762 15.02856445 74.66479492 C12.8589232 74.67982036 10.68931202 74.70024653 8.51977539 74.72631836 C5.3894099 74.76297706 2.2594483 74.77978926 -0.87109375 74.79296875 C-1.83083603 74.80845261 -2.79057831 74.82393646 -3.77940369 74.83988953 C-14.3312099 74.84248763 -22.19332394 71.88292254 -29.8125 64.5 C-36.20347475 56.89169672 -36.07948442 48.67835931 -35.5 39.1875 C-35.45077393 38.35444336 -35.40154785 37.52138672 -35.35083008 36.66308594 C-34.51756946 23.85403932 -33.08200299 15.03476365 -23.3984375 6.17578125 C-15.93988213 1.34236697 -8.79261976 -0.17823925 0 0 Z M-24.12109375 14.42578125 C-28.85009828 20.22509165 -29.3083161 26.23566219 -29.5 33.4375 C-29.53416016 34.31212891 -29.56832031 35.18675781 -29.60351562 36.08789062 C-29.68525657 38.22483254 -29.7505713 40.36239218 -29.8125 42.5 C-22.33670441 42.59280363 -14.86103363 42.66381701 -7.38477802 42.70724869 C-3.91296816 42.72809712 -0.44155327 42.75636295 3.0300293 42.80175781 C7.02396369 42.85365439 11.01748515 42.87296773 15.01171875 42.890625 C16.25459152 42.91127014 17.49746429 42.93191528 18.77799988 42.95318604 C19.93882584 42.95348816 21.09965179 42.95379028 22.2956543 42.95410156 C23.31491501 42.96298401 24.33417572 42.97186646 25.38432312 42.98101807 C28.93891834 42.37105851 30.60692822 40.96574053 33.1875 38.5 C35.54499821 33.78500358 34.49026284 27.77138669 33.0625 22.875 C30.76409449 16.74948205 27.14925656 12.31618085 21.375 9.1875 C6.00891053 2.47024137 -11.2777127 3.35205187 -24.12109375 14.42578125 Z " fill="#666666" transform="translate(711.8125,601.5)"/>
<path d="M0 0 C8.54357423 8.09482083 10.7003256 17.6832139 11.0625 29.0625 C10.84942046 41.58405628 7.09736475 52.55992011 -1.96875 61.43359375 C-10.15970175 67.94385493 -20.34992341 68.2917469 -30.375 68.1875 C-32.05432617 68.20490234 -32.05432617 68.20490234 -33.76757812 68.22265625 C-43.69207611 68.18773133 -51.26888063 66.72504992 -58.5859375 59.7578125 C-63.68273134 54.01527102 -65.62875422 47.46341931 -65.3125 39.8125 C-64.19678372 34.57229156 -61.92078006 30.77652598 -58.3125 26.8125 C-40.21103299 15.81521942 -15.31941008 19.35281402 4.6875 21.8125 C1.55675641 11.98301453 -1.01851133 6.32922941 -10.3125 1.5 C-15.7080758 -1.12208467 -20.30570122 -2.31225056 -26.296875 -2.3203125 C-27.23273437 -2.32160156 -28.16859375 -2.32289063 -29.1328125 -2.32421875 C-30.58300781 -2.31841797 -30.58300781 -2.31841797 -32.0625 -2.3125 C-33.48949219 -2.31830078 -33.48949219 -2.31830078 -34.9453125 -2.32421875 C-40.81418885 -2.31617919 -46.49202243 -1.94200635 -52.3125 -1.1875 C-52.6425 -2.8375 -52.9725 -4.4875 -53.3125 -6.1875 C-36.54992488 -11.53725802 -14.2284412 -11.48913383 0 0 Z M-57.3125 33.8125 C-60.05786732 38.29129037 -60.15035837 42.71054097 -59.3125 47.8125 C-56.46762589 54.44356687 -51.84484201 58.85046638 -45.3125 61.8125 C-40.64540308 63.19396069 -36.01849464 63.0355112 -31.1875 63.0625 C-30.28773438 63.083125 -29.38796875 63.10375 -28.4609375 63.125 C-20.09775638 63.17306426 -11.64163145 61.75101393 -4.90625 56.4453125 C1.59610029 49.78359088 5.81866378 40.02053332 5.875 30.6875 C5.813125 29.73875 5.75125 28.79 5.6875 27.8125 C-1.30378002 24.31685999 -11.28054473 25.59360702 -18.94921875 25.57226562 C-21.04467837 25.56258236 -23.13914506 25.53147763 -25.234375 25.5 C-36.62802854 25.41007728 -48.51665707 25.79850978 -57.3125 33.8125 Z " fill="#666666" transform="translate(568.3125,613.1875)"/>
<path d="M0 0 C1.32 0 2.64 0 4 0 C6.54136875 5.61511144 9.08244941 11.23035313 11.62329102 16.84570312 C12.4832426 18.74612744 13.34326579 20.64651936 14.20336914 22.546875 C15.03896561 24.39310803 15.87438384 26.23942174 16.70962524 28.08581543 C17.54763946 29.93751083 18.38648885 31.78882849 19.22616577 33.63977051 C21.35253148 38.33206365 23.45943164 43.03160349 25.53173828 47.74804688 C25.93719376 48.66539612 26.34264923 49.58274536 26.76039124 50.52789307 C27.52872388 52.26831804 28.29158865 54.01117063 29.04808044 55.7567749 C29.39258743 56.53474426 29.73709442 57.31271362 30.09204102 58.11425781 C30.38933609 58.79482239 30.68663116 59.47538696 30.99293518 60.17657471 C32.09983643 62.18076718 33.25903836 63.51893116 35 65 C36.94938705 65.39796155 36.94938705 65.39796155 39 65.25 C40.0209375 65.22679687 40.0209375 65.22679687 41.0625 65.203125 C43.21614892 65.04772119 43.21614892 65.04772119 46 64 C46.73908602 62.02561496 47.38624992 60.01686769 48 58 C49.29482175 54.8966167 50.70614661 51.84652393 52.10546875 48.7890625 C52.50776199 47.90326508 52.91005524 47.01746765 53.32453918 46.10482788 C54.60937695 43.27692782 55.89820559 40.45087061 57.1875 37.625 C58.87005326 33.93039748 60.5508337 30.23499255 62.23046875 26.5390625 C62.6371579 25.6446344 63.04384705 24.7502063 63.46286011 23.82867432 C67.05212338 15.91899316 70.54875832 7.97074175 74 0 C75.65 0.33 77.3 0.66 79 1 C78.41214718 6.44047779 76.51076837 10.79634569 74.24609375 15.703125 C73.86695328 16.53978699 73.48781281 17.37644897 73.09718323 18.23846436 C71.88393505 20.91205816 70.66102884 23.58109766 69.4375 26.25 C68.24597025 28.86655954 67.05644377 31.48402173 65.86734009 34.10168457 C65.07871303 35.8347977 64.2876788 37.56681753 63.49423218 39.29772949 C61.54521424 43.55629771 59.63432611 47.82487038 57.80126953 52.13476562 C57.45040787 52.95176941 57.0995462 53.76877319 56.73805237 54.61053467 C56.08321142 56.14145234 55.43773118 57.67642443 54.80381775 59.21612549 C52.53137406 64.50286969 49.77426285 68.30461715 44.75 71.375 C40.69669354 72.29620601 36.94239429 72.3928964 33 71 C27.25307252 67.11149698 24.39226781 62.77037618 21.73046875 56.47265625 C21.36737106 55.65437851 21.00427338 54.83610077 20.63017273 53.99302673 C19.46528173 51.35674369 18.32620147 48.71018605 17.1875 46.0625 C16.39303151 44.25125368 15.59696418 42.44070783 14.79931641 40.63085938 C12.86117958 36.22258026 10.94316455 31.80592259 9.03277588 27.38555908 C7.56754021 24.00108204 6.0867301 20.6235878 4.60546875 17.24609375 C2.38414314 12.17229376 0.18314198 7.09034111 -2 2 C-1.34 1.34 -0.68 0.68 0 0 Z " fill="#666666" transform="translate(586,605)"/>
<path d="M0 0 C1.65 0 3.3 0 5 0 C5 7.26 5 14.52 5 22 C14.57 22 24.14 22 34 22 C34 23.98 34 25.96 34 28 C24.43 28 14.86 28 5 28 C5.05117065 34.26328721 5.11427924 40.52414184 5.20751953 46.78662109 C5.23564943 48.91447005 5.25690346 51.04242194 5.27099609 53.17041016 C5.29253608 56.2391398 5.33924371 59.30664211 5.390625 62.375 C5.39185364 63.31802979 5.39308228 64.26105957 5.39434814 65.23266602 C5.55117007 72.39297269 7.21270531 77.69155147 11.859375 83.20703125 C19.4651804 89.66568005 26.12621348 91.4132381 36 92 C36.33 93.65 36.66 95.3 37 97 C29.65781255 98.84894501 21.93792429 97.31184998 15.25 93.875 C8.13589588 89.47719018 2.59973367 84.07897581 0 76 C-0.25909177 73.32333209 -0.38252082 70.89453571 -0.34057617 68.22875977 C-0.34101425 67.48646622 -0.34145233 66.74417267 -0.34190369 65.97938538 C-0.33983 63.54978219 -0.31656742 61.12088741 -0.29296875 58.69140625 C-0.28736772 56.99747596 -0.28310002 55.30354078 -0.28010559 53.60960388 C-0.26869672 49.16914253 -0.23926401 44.72897944 -0.20599365 40.28863525 C-0.17520706 35.75040724 -0.16158196 31.21213065 -0.14648438 26.67382812 C-0.11439019 17.78242164 -0.06324216 8.8912357 0 0 Z " fill="#666666" transform="translate(393,581)"/>
<path d="M0 0 C3.97899727 2.06504922 6.48632107 4.07190188 8.0390625 8.2734375 C8.71150579 13.29154555 8.59486717 17.09769686 6.4140625 21.7109375 C2.62051004 25.80398094 -0.36200691 27.09577855 -5.8984375 27.7109375 C-10.53128429 27.50680824 -13.24932116 26.03895556 -16.9609375 23.2734375 C-20.04324337 18.89855175 -20.86381019 14.52835947 -19.9609375 9.2734375 C-18.57564932 5.34454108 -16.65569857 2.76292825 -13.2109375 0.3359375 C-8.59602503 -1.17278389 -4.56995094 -1.69324876 0 0 Z " fill="#FDB60E" transform="translate(264.9609375,230.7265625)"/>
<path d="M0 0 C3.86720247 2.00521609 6.94761566 4.11127178 9 8 C10.38242317 14.02341524 10.18456076 17.48009468 7 23 C2.41387586 27.25055408 -0.56604193 28.35395934 -6.6796875 28.28515625 C-11.09024657 27.74311785 -13.77567179 25.22432821 -16.8125 22.1875 C-19.12717688 17.92362153 -19.17009561 14.09617168 -18.4375 9.375 C-14.99516039 1.29298525 -8.28628933 -1.01834869 0 0 Z " fill="#FDB60E" transform="translate(167,312)"/>
<path d="M0 0 C1.61936288 1.13679274 3.17181692 2.36820532 4.703125 3.62109375 C4.043125 4.94109375 3.383125 6.26109375 2.703125 7.62109375 C-1.69943515 6.70950483 -5.50985219 4.70695724 -9.54296875 2.77734375 C-18.24859483 -0.87778436 -27.07614849 -0.1351923 -35.68359375 3.37109375 C-42.97489257 6.85871053 -46.63426093 10.21401461 -49.49157715 17.81585693 C-50.83489293 22.49526702 -50.90015743 27.03685767 -50.90625 31.87890625 C-50.92278625 32.90797089 -50.93932251 33.93703552 -50.95635986 34.99728394 C-51.00449757 38.24694998 -51.02613478 41.49614928 -51.046875 44.74609375 C-51.07506327 46.9648668 -51.10499464 49.18361844 -51.13671875 51.40234375 C-51.21024678 56.80850995 -51.26208891 62.21454674 -51.296875 67.62109375 C-52.946875 67.62109375 -54.596875 67.62109375 -56.296875 67.62109375 C-56.39875999 60.66524851 -56.46854337 53.70959757 -56.51660156 46.75317383 C-56.53664782 44.3894939 -56.56389219 42.02586314 -56.59863281 39.66235352 C-56.64745771 36.25394518 -56.66991448 32.84619572 -56.6875 29.4375 C-56.70814514 28.3902626 -56.72879028 27.34302521 -56.75006104 26.26405334 C-56.75257366 17.9445291 -54.76325076 12.18363651 -50.046875 5.37109375 C-36.98260672 -7.69317453 -15.77000338 -9.46736598 0 0 Z " fill="#666666" transform="translate(499.296875,610.37890625)"/>
<path d="M0 0 C1.98 0 3.96 0 6 0 C6 31.68 6 63.36 6 96 C4.02 96 2.04 96 0 96 C0 64.32 0 32.64 0 0 Z " fill="#666666" transform="translate(772,582)"/>
</svg>
