<svg width="26" height="25" viewBox="0 0 26 25" fill="none" xmlns="http://www.w3.org/2000/svg">
<mask id="mask0_432_2079" style="mask-type:alpha" maskUnits="userSpaceOnUse" x="0" y="0" width="26" height="25">
<rect x="0.921875" y="0.308105" width="24.1564" height="24.1564" fill="#D9D9D9"/>
</mask>
<g mask="url(#mask0_432_2079)">
<path d="M21.0019 21.445C18.905 21.445 16.8332 20.9878 14.7866 20.0736C12.7401 19.1593 10.878 17.8634 9.20047 16.1859C7.52293 14.5084 6.22704 12.6463 5.31279 10.5997C4.39853 8.55315 3.94141 6.4814 3.94141 4.38448C3.94141 4.08253 4.04206 3.8309 4.24336 3.62959C4.44467 3.42829 4.6963 3.32764 4.99825 3.32764H9.07465C9.30951 3.32764 9.5192 3.40732 9.70373 3.56668C9.88825 3.72605 9.99729 3.91477 10.0308 4.13285L10.6851 7.65567C10.7186 7.92407 10.7102 8.15054 10.6599 8.33507C10.6096 8.5196 10.5173 8.67896 10.3831 8.81316L7.94232 11.2791C8.27782 11.8998 8.67624 12.4995 9.13756 13.0783C9.59888 13.657 10.1063 14.2148 10.6599 14.7516C11.18 15.2717 11.7252 15.7539 12.2955 16.1985C12.8659 16.643 13.4698 17.0498 14.1072 17.4189L16.4726 15.0536C16.6235 14.9026 16.8207 14.7894 17.0639 14.7139C17.3071 14.6384 17.5462 14.6174 17.781 14.651L21.2535 15.3555C21.4884 15.4226 21.6813 15.5443 21.8323 15.7204C21.9833 15.8965 22.0587 16.0936 22.0587 16.3117V20.3881C22.0587 20.6901 21.9581 20.9417 21.7568 21.143C21.5555 21.3443 21.3039 21.445 21.0019 21.445ZM6.98613 9.36675L8.64688 7.70599L8.21911 5.34067H5.97961C6.06348 6.02846 6.18091 6.70786 6.33189 7.37887C6.48287 8.04989 6.70094 8.71251 6.98613 9.36675ZM15.9945 18.3751C16.6487 18.6603 17.3155 18.8867 17.9949 19.0545C18.6743 19.2222 19.3579 19.3313 20.0457 19.3816V17.1673L17.6804 16.6892L15.9945 18.3751Z" fill="white"/>
</g>
</svg>
