<svg width="24" height="25" viewBox="0 0 24 25" fill="none" xmlns="http://www.w3.org/2000/svg">
<path d="M12 2.44482C6.489 2.44482 2 6.99254 2 12.5756C2 18.1587 6.489 22.7064 12 22.7064C17.511 22.7064 22 18.1587 22 12.5756C22 6.99254 17.511 2.44482 12 2.44482ZM12 4.47098C16.4301 4.47098 20 8.08755 20 12.5756C20 16.6426 17.0653 19.9843 13.2188 20.5774V14.9916H15.5469L15.9121 12.5954H13.2188V11.2855C13.2188 10.2897 13.539 9.40579 14.459 9.40579H15.9355V7.31433C15.6755 7.27888 15.1268 7.20155 14.0898 7.20155C11.9238 7.20155 10.6543 8.36051 10.6543 11.0006V12.5954H8.42773V14.9916H10.6543V20.5576C6.87029 19.9112 4 16.5978 4 12.5756C4 8.08755 7.56988 4.47098 12 4.47098Z" fill="white"/>
</svg>
