<svg width="19" height="19" viewBox="0 0 19 19" fill="none" xmlns="http://www.w3.org/2000/svg">
<path d="M9.5 0C4.26455 0 0 4.26455 0 9.5C0 14.7355 4.26455 19 9.5 19C14.7355 19 19 14.7355 19 9.5C19 4.26455 14.7355 0 9.5 0ZM9.5 1.9C13.7086 1.9 17.1 5.29138 17.1 9.5C17.1 13.3137 14.3121 16.4474 10.6578 17.0035V11.7655H12.8695L13.2165 9.51855H10.6578V8.29023C10.6578 7.35638 10.962 6.52754 11.836 6.52754H13.2388V4.56631C12.9918 4.53306 12.4705 4.46055 11.4854 4.46055C9.42765 4.46055 8.22158 5.54735 8.22158 8.02305V9.51855H6.10635V11.7655H8.22158V16.985C4.62678 16.3788 1.9 13.2717 1.9 9.5C1.9 5.29138 5.29138 1.9 9.5 1.9Z" fill="#094174"/>
</svg>
