<svg width="24" height="25" viewBox="0 0 24 25" fill="none" xmlns="http://www.w3.org/2000/svg">
<path d="M8 3.03906C5.243 3.03906 3 5.3114 3 8.10446V16.2091C3 19.0022 5.243 21.2745 8 21.2745H16C18.757 21.2745 21 19.0022 21 16.2091V8.10446C21 5.3114 18.757 3.03906 16 3.03906H8ZM8 5.06522H16C17.654 5.06522 19 6.42883 19 8.10446V16.2091C19 17.8847 17.654 19.2483 16 19.2483H8C6.346 19.2483 5 17.8847 5 16.2091V8.10446C5 6.42883 6.346 5.06522 8 5.06522ZM17 6.0783C16.7348 6.0783 16.4804 6.18504 16.2929 6.37503C16.1054 6.56502 16 6.8227 16 7.09138C16 7.36007 16.1054 7.61775 16.2929 7.80774C16.4804 7.99773 16.7348 8.10446 17 8.10446C17.2652 8.10446 17.5196 7.99773 17.7071 7.80774C17.8946 7.61775 18 7.36007 18 7.09138C18 6.8227 17.8946 6.56502 17.7071 6.37503C17.5196 6.18504 17.2652 6.0783 17 6.0783ZM12 7.09138C9.243 7.09138 7 9.36372 7 12.1568C7 14.9498 9.243 17.2222 12 17.2222C14.757 17.2222 17 14.9498 17 12.1568C17 9.36372 14.757 7.09138 12 7.09138ZM12 9.11754C13.654 9.11754 15 10.4811 15 12.1568C15 13.8324 13.654 15.196 12 15.196C10.346 15.196 9 13.8324 9 12.1568C9 10.4811 10.346 9.11754 12 9.11754Z" fill="#EEEEEE"/>
</svg>
