<svg width="19" height="19" viewBox="0 0 19 19" fill="none" xmlns="http://www.w3.org/2000/svg">
<path d="M5.27778 0C2.36761 0 0 2.36761 0 5.27778V13.7222C0 16.6324 2.36761 19 5.27778 19H13.7222C16.6324 19 19 16.6324 19 13.7222V5.27778C19 2.36761 16.6324 0 13.7222 0H5.27778ZM5.27778 2.11111H13.7222C15.4681 2.11111 16.8889 3.53189 16.8889 5.27778V13.7222C16.8889 15.4681 15.4681 16.8889 13.7222 16.8889H5.27778C3.53189 16.8889 2.11111 15.4681 2.11111 13.7222V5.27778C2.11111 3.53189 3.53189 2.11111 5.27778 2.11111ZM14.7778 3.16667C14.4978 3.16667 14.2293 3.27788 14.0314 3.47583C13.8334 3.67379 13.7222 3.94227 13.7222 4.22222C13.7222 4.50217 13.8334 4.77066 14.0314 4.96861C14.2293 5.16657 14.4978 5.27778 14.7778 5.27778C15.0577 5.27778 15.3262 5.16657 15.5242 4.96861C15.7221 4.77066 15.8333 4.50217 15.8333 4.22222C15.8333 3.94227 15.7221 3.67379 15.5242 3.47583C15.3262 3.27788 15.0577 3.16667 14.7778 3.16667ZM9.5 4.22222C6.58983 4.22222 4.22222 6.58983 4.22222 9.5C4.22222 12.4102 6.58983 14.7778 9.5 14.7778C12.4102 14.7778 14.7778 12.4102 14.7778 9.5C14.7778 6.58983 12.4102 4.22222 9.5 4.22222ZM9.5 6.33333C11.2459 6.33333 12.6667 7.75411 12.6667 9.5C12.6667 11.2459 11.2459 12.6667 9.5 12.6667C7.75411 12.6667 6.33333 11.2459 6.33333 9.5C6.33333 7.75411 7.75411 6.33333 9.5 6.33333Z" fill="#094174"/>
</svg>
