<svg width="24" height="26" viewBox="0 0 24 26" fill="none" xmlns="http://www.w3.org/2000/svg">
<path d="M4.5 3.87598C2.57881 3.87598 1 5.47544 1 7.42176V19.0722C1 20.7387 2.35503 22.1114 4 22.1114H8V14.6894L12 17.8553L16 14.6894V22.1114H20C21.645 22.1114 23 20.7387 23 19.0722V7.42176C23 5.47544 21.4212 3.87598 19.5 3.87598C18.7501 3.87598 17.9825 4.12141 17.3438 4.62787L12 8.85233L6.65625 4.62787H6.6543C6.01581 4.12224 5.24927 3.87598 4.5 3.87598ZM4.5 5.90214C4.83012 5.90214 5.14262 6.00171 5.42383 6.22466L6 6.67975V10.5362L3 8.16376V7.42176C3 6.56995 3.65919 5.90214 4.5 5.90214ZM19.5 5.90214C20.3408 5.90214 21 6.56995 21 7.42176V8.16376L18 10.5362V6.67975L18.5762 6.22466C18.8574 6.00171 19.1699 5.90214 19.5 5.90214ZM8 8.26071L12 11.4226L16 8.26071V12.1191L12 15.285L8 12.1191V8.26071ZM3 10.7341L6 13.1065V20.0853H4C3.43497 20.0853 3 19.6446 3 19.0722V10.7341ZM21 10.7341V19.0722C21 19.6446 20.565 20.0853 20 20.0853H18V13.1065L21 10.7341Z" fill="white"/>
</svg>
